# 3ds Max Wavefront OBJ Exporter v0.97b - (c)2007 guruware
# File Created: 02.03.2022 17:31:35

mtllib mdl_crate.mtl

#
# object Box001
#

v  -0.3170 0.0000 0.2584
v  -0.3170 0.0000 -0.2509
v  0.3099 0.0000 -0.2509
v  0.3099 0.0000 0.2584
v  -0.3170 0.6147 0.2584
v  0.3099 0.6147 0.2584
v  0.3099 0.6147 -0.2509
v  -0.3170 0.6147 -0.2509
# 8 vertices

vn -0.5774 -0.5774 0.5774
vn -0.5774 -0.5774 -0.5774
vn 0.5774 -0.5774 -0.5774
vn 0.5774 -0.5774 0.5774
vn -0.5774 0.5774 0.5774
vn 0.5774 0.5774 0.5774
vn 0.5774 0.5774 -0.5774
vn -0.5774 0.5774 -0.5774
# 8 vertex normals

vt 1.0000 0.0000 0.0000
vt 1.0000 1.0000 0.0000
vt 0.0000 1.0000 0.0000
vt 0.0000 0.0000 0.0000
# 4 texture coords

o Box001
g Box001
usemtl 07___Default
s 2
f 1/1/1 2/2/2 3/3/3 4/4/4 
s 4
f 5/4/5 6/1/6 7/2/7 8/3/8 
s 8
f 1/4/1 4/1/4 6/2/6 5/3/5 
s 16
f 4/4/4 3/1/3 7/2/7 6/3/6 
s 32
f 3/4/3 2/1/2 8/2/8 7/3/7 
s 64
f 2/4/2 1/1/1 5/2/5 8/3/8 
# 6 polygons

#
# object Box002
#

v  -0.3070 0.0000 -0.2509
v  -0.3070 0.0000 0.2584
v  -0.3170 -0.0100 0.2584
v  -0.3170 -0.0100 -0.2509
v  -0.3170 0.0100 -0.2509
v  -0.3170 0.0100 0.2584
v  -0.3270 0.0000 -0.2509
v  -0.3270 0.0000 0.2584
v  0.3099 0.0000 -0.2590
v  -0.3170 0.0000 -0.2590
v  0.3099 0.0100 -0.2509
v  0.3099 -0.0100 -0.2509
v  0.3099 0.0000 -0.2428
v  -0.3170 0.0000 -0.2428
v  0.3199 0.0000 0.2584
v  0.3199 0.0000 -0.2509
v  0.3099 0.0100 0.2584
v  0.3099 -0.0100 0.2584
v  0.2999 0.0000 0.2584
v  0.2999 0.0000 -0.2509
v  -0.3170 0.0000 0.2503
v  0.3099 0.0000 0.2503
v  -0.3170 0.0000 0.2665
v  0.3099 0.0000 0.2665
v  0.3099 0.6147 0.2503
v  -0.3170 0.6147 0.2503
v  -0.3170 0.6247 0.2584
v  0.3099 0.6247 0.2584
v  0.3099 0.6047 0.2584
v  -0.3170 0.6047 0.2584
v  0.3099 0.6147 0.2665
v  -0.3170 0.6147 0.2665
v  0.3199 0.6147 -0.2509
v  0.3199 0.6147 0.2584
v  0.3099 0.6047 -0.2509
v  0.3099 0.6247 -0.2509
v  0.2999 0.6147 -0.2509
v  0.2999 0.6147 0.2584
v  -0.3170 0.6147 -0.2590
v  0.3099 0.6147 -0.2590
v  -0.3170 0.6047 -0.2509
v  -0.3170 0.6247 -0.2509
v  -0.3170 0.6147 -0.2428
v  0.3099 0.6147 -0.2428
v  -0.3070 0.6147 0.2584
v  -0.3070 0.6147 -0.2509
v  -0.3270 0.6147 0.2584
v  -0.3270 0.6147 -0.2509
# 48 vertices

vn 0.8165 0.0000 -0.5774
vn 0.8164 0.0000 0.5774
vn -0.0001 -0.8165 0.5774
vn -0.0001 -0.8165 -0.5774
vn -0.0001 0.8165 -0.5774
vn -0.0001 0.8165 0.5774
vn -0.8165 0.0000 -0.5774
vn -0.8165 0.0000 0.5774
vn 0.5774 0.0001 -0.8165
vn -0.5774 0.0001 -0.8165
vn -0.5773 0.8165 -0.0000
vn 0.5774 0.8165 -0.0000
vn 0.5774 -0.8164 -0.0000
vn -0.5774 -0.8165 -0.0000
vn 0.5774 0.0001 0.8165
vn -0.5774 0.0001 0.8165
vn 0.8165 0.0001 0.5774
vn 0.8165 0.0001 -0.5774
vn 0.0000 0.8165 -0.5773
vn 0.0000 0.8165 0.5774
vn 0.0000 -0.8164 0.5774
vn 0.0000 -0.8165 -0.5774
vn -0.8165 0.0001 0.5774
vn -0.8165 0.0001 -0.5774
vn -0.5774 0.0000 -0.8165
vn 0.5774 0.0000 -0.8164
vn 0.5774 -0.8165 0.0001
vn -0.5774 -0.8165 0.0001
vn -0.5774 0.8165 0.0001
vn 0.5774 0.8165 0.0001
vn -0.5774 0.0000 0.8165
vn 0.5774 0.0000 0.8165
vn 0.5774 0.0000 -0.8165
vn -0.5774 0.8165 0.0000
vn 0.5774 0.8165 0.0000
vn 0.5774 -0.8165 -0.0000
vn 0.5774 -0.0000 0.8165
vn -0.5774 -0.0000 0.8165
vn 0.8165 0.0000 0.5774
vn 0.0000 -0.8165 0.5774
vn -0.0000 0.8165 -0.5774
vn -0.0000 0.8165 0.5774
vn -0.8165 -0.0000 -0.5774
vn -0.8165 -0.0000 0.5774
vn 0.8165 0.5774 -0.0000
vn 0.8165 -0.5774 -0.0000
vn -0.0000 -0.5774 -0.8165
vn -0.0000 0.5774 -0.8165
vn 0.0001 0.5774 0.8165
vn 0.0001 -0.5774 0.8165
vn -0.8165 0.5774 -0.0001
vn -0.8165 -0.5774 -0.0001
vn 0.0000 0.5774 0.8165
vn 0.0000 -0.5774 0.8165
vn 0.0001 -0.5774 -0.8165
vn 0.0001 0.5774 -0.8165
vn -0.8165 -0.5774 0.0001
vn -0.8165 0.5774 0.0001
vn 0.8165 0.5774 -0.0001
vn 0.8165 -0.5774 -0.0001
vn -0.0001 0.5774 0.8165
vn -0.0001 -0.5774 0.8165
vn -0.8165 0.5774 0.0000
vn -0.8165 -0.5774 0.0000
vn 0.8165 0.5774 0.0000
vn 0.8165 -0.5774 0.0000
vn 0.0000 -0.5774 -0.8165
vn 0.0000 0.5774 -0.8165
# 68 vertex normals

vt 0.9691 0.9845 0.0158
vt 0.9691 0.0155 0.0158
vt 0.9845 0.0155 0.0000
vt 0.9845 0.9845 0.0000
vt 0.0155 0.9845 0.0315
vt 0.0155 0.0155 0.0315
vt 0.0309 0.0155 0.0158
vt 0.0309 0.9845 0.0158
vt 0.0000 0.9845 0.0158
vt 0.0000 0.0155 0.0158
vt 1.0000 0.0155 0.0158
vt 1.0000 0.9845 0.0158
vt 0.0000 0.0158 0.0155
vt 0.0155 0.0000 0.0155
vt 0.0309 0.0158 0.0155
vt 0.0155 0.0315 0.0155
vt 0.9845 0.0315 0.9845
vt 0.9691 0.0158 0.9845
vt 0.9845 0.0000 0.9845
vt 1.0000 0.0158 0.9845
vt 0.9845 1.0000 0.0158
vt 0.0155 1.0000 0.0158
vt 0.9845 0.9845 0.0315
vt 0.0155 0.9845 0.0000
vt 0.0155 0.9691 0.0158
vt 0.9845 0.9691 0.0158
vt 0.9845 0.0155 0.0315
vt 0.0155 0.0155 0.0000
vt 0.0309 0.0158 0.9845
vt 0.0155 0.0315 0.9845
vt 0.0000 0.0158 0.9845
vt 0.0155 0.0000 0.9845
vt 0.9845 0.0000 0.0155
vt 1.0000 0.0158 0.0155
vt 0.9845 0.0315 0.0155
vt 0.9691 0.0158 0.0155
vt 0.9845 0.0309 0.0158
vt 0.0155 0.0309 0.0158
vt 0.0155 0.0000 0.0158
vt 0.9845 0.0000 0.0158
vt 0.9845 0.0309 0.9842
vt 0.0155 0.0309 0.9842
vt 0.0155 0.0155 1.0000
vt 0.9845 0.0155 1.0000
vt 0.0155 0.0155 0.9685
vt 0.9845 0.0155 0.9685
vt 0.0155 0.0000 0.9842
vt 0.9845 0.0000 0.9842
vt 1.0000 0.9842 0.0155
vt 0.9845 1.0000 0.0155
vt 0.9691 0.9842 0.0155
vt 0.9845 0.9685 0.0155
vt 0.0155 0.9685 0.9845
vt 0.0309 0.9842 0.9845
vt 0.0155 1.0000 0.9845
vt 0.0000 0.9842 0.9845
vt 0.0000 0.9845 0.9842
vt 0.0000 0.0155 0.9842
vt 0.0155 0.9845 0.9685
vt 0.9845 0.9845 1.0000
vt 1.0000 0.0155 0.9842
vt 1.0000 0.9845 0.9842
vt 0.9691 0.9845 0.9842
vt 0.9691 0.0155 0.9842
vt 0.0309 0.0155 0.9842
vt 0.0309 0.9845 0.9842
vt 0.9845 1.0000 0.9842
vt 0.0155 1.0000 0.9842
vt 0.9845 0.9845 0.9685
vt 0.0155 0.9845 1.0000
vt 0.0155 0.9691 0.9842
vt 0.9845 0.9691 0.9842
vt 0.9691 0.9842 0.9845
vt 0.9845 0.9685 0.9845
vt 1.0000 0.9842 0.9845
vt 0.9845 1.0000 0.9845
vt 0.0155 1.0000 0.0155
vt 0.0000 0.9842 0.0155
vt 0.0155 0.9685 0.0155
vt 0.0309 0.9842 0.0155
vt 0.0155 0.0158 0.0309
vt 0.0155 0.9842 0.0309
vt 0.0155 0.0158 1.0000
vt 0.0155 0.9842 1.0000
vt 0.9845 0.9842 0.9691
vt 0.9845 0.0158 0.9691
vt 0.9845 0.0158 0.0309
vt 0.9845 0.9842 0.0309
vt 0.0155 0.0158 0.0000
vt 0.0155 0.9842 0.0000
vt 0.0155 0.0158 0.9691
vt 0.0155 0.9842 0.9691
vt 0.9845 0.9842 1.0000
vt 0.9845 0.0158 1.0000
# 94 texture coords

o Box002
g Box002
usemtl 07___Default
s off
f 9/5/9 10/6/10 11/7/11 12/8/12 
f 13/9/13 14/10/14 10/11/10 9/12/9 
f 15/13/15 16/14/16 14/10/14 13/9/13 
f 12/8/12 11/7/11 16/15/16 15/16/15 
f 16/17/16 11/18/11 10/19/10 
f 10/19/10 14/20/14 16/17/16 
f 13/21/13 9/22/9 12/23/12 
f 12/23/12 15/24/15 13/21/13 
f 17/25/17 18/26/18 13/9/19 19/27/20 
f 20/28/21 12/8/22 18/25/18 17/26/17 
f 21/29/23 22/30/24 12/8/22 20/28/21 
f 19/27/20 13/9/19 22/29/24 21/30/23 
f 22/19/24 13/20/19 18/17/18 
f 18/17/18 12/18/22 22/19/24 
f 20/23/21 17/24/17 19/21/20 
f 19/21/20 21/22/23 20/23/21 
f 23/15/25 24/16/26 19/27/27 25/31/28 
f 26/32/29 20/28/30 24/13/26 23/14/25 
f 27/11/31 28/12/32 20/28/30 26/32/29 
f 25/31/28 19/27/27 28/5/32 27/6/31 
f 28/33/32 19/34/27 24/35/26 
f 24/35/26 20/36/30 28/33/32 
f 26/37/29 23/38/25 25/39/28 
f 25/39/28 27/40/31 26/37/29 
f 29/41/33 30/42/34 26/32/35 11/7/36 
f 14/10/37 25/31/38 30/41/34 29/42/33 
f 31/43/39 32/44/40 25/31/38 14/10/37 
f 11/7/36 26/32/35 32/43/40 31/44/39 
f 32/35/40 26/36/35 30/33/34 
f 30/33/34 25/34/38 32/35/40 
f 14/39/37 29/40/33 11/37/36 
f 11/37/36 31/38/39 14/39/37 
f 33/45/41 34/46/33 35/47/42 36/48/43 
f 37/49/44 38/50/22 34/45/33 33/46/41 
f 39/51/45 40/52/46 38/50/22 37/49/44 
f 36/48/43 35/47/42 40/51/46 39/52/45 
f 40/53/46 35/54/42 34/55/33 
f 34/55/33 38/56/22 40/53/46 
f 37/57/44 33/58/41 36/59/43 
f 36/59/43 39/60/45 37/57/44 
f 41/61/9 42/62/47 37/49/48 43/63/30 
f 44/64/49 36/48/50 42/65/47 41/66/9 
f 45/67/51 46/68/52 36/48/50 44/64/49 
f 43/63/30 37/49/48 46/69/52 45/70/51 
f 46/55/52 37/56/48 42/53/47 
f 42/53/47 36/54/50 46/55/52 
f 44/59/49 41/60/9 43/57/30 
f 43/57/30 45/58/51 44/59/49 
f 47/71/33 48/72/41 43/63/44 49/73/22 
f 50/74/42 44/64/43 48/71/41 47/72/33 
f 51/75/46 52/76/45 44/64/43 50/74/42 
f 49/73/22 43/63/44 52/75/45 51/76/46 
f 52/77/45 43/78/44 48/79/41 
f 48/79/41 44/80/43 52/77/45 
f 50/81/42 47/82/33 49/83/22 
f 49/83/22 51/84/46 50/81/42 
f 53/69/47 54/70/9 50/74/49 35/47/50 
f 38/50/48 49/73/30 54/67/9 53/68/47 
f 55/65/52 56/66/51 49/73/30 38/50/48 
f 35/47/50 50/74/49 56/61/51 55/62/52 
f 56/79/51 50/80/49 54/77/9 
f 54/77/9 49/78/30 56/79/51 
f 38/83/48 53/84/47 35/81/50 
f 35/81/50 55/82/52 38/83/48 
f 42/82/53 23/17/54 30/85/55 33/86/56 
f 39/60/57 32/35/58 23/87/54 42/88/53 
f 46/89/59 27/90/60 32/24/58 39/79/57 
f 33/77/56 30/22/55 27/90/60 46/89/59 
f 27/11/60 30/42/55 23/14/54 
f 23/14/54 32/43/58 27/11/60 
f 39/52/57 42/65/53 33/45/56 
f 33/45/56 46/68/59 39/52/57 
f 10/85/54 53/86/53 40/82/61 31/17/62 
f 29/91/63 34/92/64 53/55/53 10/40/54 
f 16/38/65 55/53/66 34/92/64 29/91/63 
f 31/93/62 40/94/61 55/82/66 16/17/65 
f 55/62/66 40/51/61 53/69/53 
f 53/69/53 34/46/64 55/62/66 
f 29/41/63 10/6/54 31/44/62 
f 31/44/62 16/15/65 29/41/63 
f 41/60/67 24/35/68 17/87/55 48/88/56 
f 52/89/69 21/90/70 24/24/68 41/79/67 
f 45/77/71 28/22/72 21/90/70 52/89/69 
f 48/60/56 17/35/55 28/95/72 45/96/71 
f 28/12/72 17/26/55 24/13/68 
f 24/13/68 21/29/70 28/12/72 
f 52/76/69 41/66/67 48/71/56 
f 48/71/56 45/67/71 52/76/69 
f 54/92/73 9/91/74 18/38/75 47/53/76 
f 51/96/57 22/95/58 9/33/74 54/58/73 
f 56/94/59 15/93/60 22/19/58 51/84/57 
f 47/97/76 18/98/75 15/24/60 56/79/59 
f 15/16/60 18/25/75 9/5/74 
f 9/5/74 22/30/58 15/16/60 
f 51/75/57 54/70/73 47/72/76 
f 47/72/76 56/61/59 51/75/57 
# 48 polygons - 48 triangles

