# 3ds Max Wavefront OBJ Exporter v0.97b - (c)2007 guruware
# File Created: 02.03.2022 17:39:40

mtllib mdl_concreteMush.mtl

#
# object Plane001
#

v  -0.5777 -0.0102 0.5423
v  -0.6481 -0.0105 0.6510
v  -0.5395 -0.0105 0.5806
v  -0.2932 0.2283 0.2960
v  -0.4308 -0.0105 0.5211
v  -0.1982 0.2148 0.3102
v  -0.3222 -0.0105 0.4859
v  -0.1316 0.1733 0.3722
v  -0.2136 -0.0105 0.4796
v  -0.0514 0.1420 0.4241
v  -0.1049 -0.0105 0.4941
v  0.0464 0.1280 0.4582
v  0.0037 -0.0105 0.4845
v  0.1693 0.1461 0.4450
v  0.1124 -0.0104 0.4651
v  0.2992 0.1694 0.3929
v  0.2211 -0.0102 0.4794
v  0.4237 0.1854 0.3595
v  0.3297 -0.0103 0.5323
v  0.4890 0.1385 0.3758
v  0.4383 -0.0105 0.5918
v  0.5086 -0.0107 0.4833
v  -0.5180 -0.0102 0.4336
v  -0.2567 0.2896 0.1325
v  -0.1549 0.2783 0.1578
v  -0.1110 0.1837 0.2619
v  -0.0338 0.1115 0.2969
v  0.0708 0.0951 0.3229
v  0.1850 0.1190 0.3192
v  0.2935 0.1182 0.2644
v  0.4061 0.1324 0.2432
v  0.5107 0.1178 0.2665
v  0.5682 -0.0107 0.3746
v  -0.4830 -0.0104 0.3250
v  -0.3420 0.2615 0.0470
v  -0.2284 0.2735 0.0522
v  -0.1534 0.1572 0.1563
v  -0.0329 0.0623 0.1632
v  0.0757 0.0599 0.1919
v  0.1808 0.1035 0.1993
v  0.2916 0.0917 0.1441
v  0.3929 0.1232 0.1325
v  0.4984 0.1575 0.1586
v  0.6034 -0.0105 0.2659
v  -0.4767 -0.0106 0.2164
v  -0.4358 0.1895 0.0096
v  -0.3285 0.2026 -0.0073
v  -0.1802 0.1035 0.0394
v  -0.0437 0.0304 0.0466
v  0.0564 0.0641 0.0855
v  0.1215 0.1429 0.1173
v  0.2270 0.1501 0.0608
v  0.3255 0.1851 0.0336
v  0.4317 0.2220 0.0476
v  0.6098 -0.0103 0.1571
v  -0.4913 -0.0105 0.1078
v  -0.4415 0.1113 -0.0327
v  -0.3119 0.0836 -0.0644
v  -0.1726 0.0210 -0.0670
v  -0.0572 -0.0076 -0.0638
v  0.0393 0.0362 -0.0364
v  0.0937 0.1207 -0.0055
v  0.1753 0.1622 -0.0438
v  0.2690 0.2077 -0.0734
v  0.3749 0.2460 -0.0625
v  0.5951 -0.0101 0.0484
v  -0.4816 -0.0105 -0.0009
v  -0.3962 0.0737 -0.1183
v  -0.2733 0.0383 -0.1551
v  -0.1637 0.0350 -0.1786
v  -0.0557 0.0371 -0.1695
v  0.0525 0.0388 -0.1440
v  0.1455 0.0768 -0.1426
v  0.2157 0.1358 -0.1620
v  0.3075 0.1696 -0.1854
v  0.4134 0.1771 -0.1677
v  0.6048 -0.0103 -0.0602
v  -0.4623 -0.0106 -0.1095
v  -0.3518 0.0655 -0.2220
v  -0.2484 0.0872 -0.2829
v  -0.1638 0.1425 -0.2785
v  -0.0566 0.1463 -0.2258
v  0.0723 0.1017 -0.2153
v  0.1852 0.0903 -0.2437
v  0.2719 0.1397 -0.2690
v  0.3802 0.1406 -0.2985
v  0.5082 0.0982 -0.2763
v  0.6242 -0.0106 -0.1687
v  -0.4767 -0.0107 -0.2181
v  -0.3464 0.0473 -0.3197
v  -0.2451 0.1601 -0.4155
v  -0.1426 0.2794 -0.4231
v  -0.0340 0.2812 -0.3291
v  0.0758 0.2163 -0.2648
v  0.1904 0.1538 -0.3116
v  0.2997 0.1497 -0.3739
v  0.4107 0.1367 -0.4079
v  0.5265 0.1036 -0.3854
v  0.6098 -0.0106 -0.2773
v  -0.5297 -0.0107 -0.3267
v  -0.3949 0.0335 -0.4204
v  -0.2644 0.1485 -0.5184
v  -0.1505 0.2711 -0.5283
v  -0.0412 0.2842 -0.4385
v  0.0660 0.2570 -0.3726
v  0.1709 0.1877 -0.4073
v  0.2792 0.1274 -0.4916
v  0.3881 0.1205 -0.5200
v  0.4962 0.1384 -0.4933
v  0.5569 -0.0104 -0.3860
v  -0.5890 -0.0106 -0.4354
v  -0.4804 -0.0107 -0.5057
v  -0.3717 -0.0106 -0.5653
v  -0.2630 -0.0104 -0.6006
v  -0.1543 -0.0104 -0.6069
v  -0.0456 -0.0102 -0.5923
v  0.0630 -0.0103 -0.6020
v  0.1716 -0.0105 -0.6213
v  0.2802 -0.0106 -0.6069
v  0.3889 -0.0104 -0.5541
v  0.4976 -0.0104 -0.4947
# 121 vertices

vn -0.7691 0.4198 -0.4820
vn 0.0024 1.0000 0.0038
vn 0.4823 0.4193 0.7691
vn -0.2143 0.8868 0.4095
vn 0.4166 0.3537 0.8375
vn 0.0432 0.8467 0.5304
vn 0.2377 0.3206 0.9169
vn 0.0404 0.8714 0.4889
vn 0.0102 0.3320 0.9432
vn 0.0191 0.9016 0.4322
vn -0.0734 0.3246 0.9430
vn 0.0115 0.7930 0.6091
vn 0.1084 0.1339 0.9851
vn 0.1434 0.7194 0.6796
vn 0.0972 0.2823 0.9544
vn -0.0058 0.8709 0.4915
vn -0.1757 0.6400 0.7481
vn 0.2425 0.9479 0.2065
vn -0.2614 0.8182 0.5121
vn 0.6715 0.6218 0.4030
vn 0.0023 1.0000 -0.0005
vn 0.7673 0.4381 0.4684
vn -0.8495 0.3170 -0.4217
vn -0.1212 0.9919 -0.0392
vn 0.7375 0.6565 -0.1586
vn 0.8139 0.5758 -0.0774
vn 0.4784 0.8493 -0.2234
vn -0.0098 0.9686 -0.2484
vn -0.1451 0.9726 -0.1817
vn -0.1503 0.9487 -0.2780
vn 0.0108 0.9716 -0.2362
vn 0.6392 0.7651 0.0781
vn 0.7227 0.6049 0.3345
vn -0.9401 0.2392 -0.2427
vn -0.3970 0.8529 -0.3390
vn 0.4364 0.6369 -0.6356
vn 0.7771 0.4676 -0.4213
vn 0.3570 0.8861 -0.2955
vn -0.1749 0.9795 -0.0999
vn -0.0882 0.9889 0.1193
vn -0.0769 0.9722 0.2214
vn -0.3215 0.8772 0.3565
vn 0.4650 0.8771 0.1205
vn 0.7820 0.5989 0.1726
vn -0.9817 0.1899 -0.0106
vn -0.7253 0.6220 -0.2949
vn 0.0447 0.5561 -0.8299
vn 0.5209 0.7093 -0.4749
vn 0.1332 0.9414 -0.3100
vn -0.5806 0.8139 0.0219
vn -0.4451 0.8262 0.3455
vn -0.0469 0.9300 0.3644
vn -0.2631 0.8407 0.4733
vn 0.3291 0.9254 0.1878
vn 0.7961 0.6051 -0.0114
vn -0.8930 0.4447 0.0693
vn -0.7264 0.3311 -0.6022
vn 0.1399 0.7225 -0.6771
vn 0.3154 0.9216 -0.2261
vn -0.0843 0.9951 0.0518
vn -0.6094 0.7880 -0.0874
vn -0.6976 0.7002 -0.1522
vn -0.4660 0.8831 -0.0549
vn -0.4049 0.9112 -0.0761
vn 0.1294 0.9826 -0.1334
vn 0.7654 0.6425 -0.0364
vn -0.7545 0.6511 -0.0823
vn -0.4427 0.7893 -0.4254
vn 0.1442 0.9893 -0.0245
vn 0.0350 0.8777 0.4780
vn -0.1215 0.7210 0.6822
vn -0.2249 0.9300 0.2906
vn -0.5135 0.8161 -0.2651
vn -0.5450 0.7763 -0.3167
vn -0.2334 0.8911 -0.3893
vn 0.3816 0.8461 -0.3722
vn 0.6731 0.7349 0.0829
vn -0.6082 0.7914 -0.0621
vn -0.4959 0.8415 -0.2146
vn -0.2524 0.8872 0.3861
vn -0.4024 0.6667 0.6274
vn -0.1532 0.5368 0.8297
vn 0.2014 0.5731 0.7943
vn -0.1524 0.9237 0.3514
vn -0.2484 0.9684 -0.0233
vn 0.1582 0.9861 -0.0504
vn 0.5242 0.8510 0.0311
vn 0.6597 0.7500 0.0474
vn -0.3470 0.9337 0.0883
vn -0.6174 0.7864 -0.0191
vn -0.7088 0.6803 0.1864
vn -0.4198 0.8914 0.1706
vn -0.0130 0.9100 0.4145
vn 0.2305 0.6511 0.7231
vn 0.4451 0.7653 0.4649
vn 0.0603 0.9975 -0.0376
vn 0.2027 0.9749 -0.0924
vn 0.6037 0.7941 0.0699
vn 0.8702 0.4546 -0.1901
vn -0.2330 0.9650 0.1204
vn -0.4798 0.8740 0.0771
vn -0.7110 0.6655 -0.2270
vn -0.0437 0.6946 -0.7181
vn 0.3194 0.8313 -0.4549
vn 0.3626 0.9211 -0.1417
vn 0.3965 0.8721 -0.2869
vn -0.0146 0.8674 -0.4974
vn 0.0071 0.7981 -0.6025
vn 0.4793 0.7691 -0.4229
vn 0.8927 0.0409 -0.4488
vn 0.0019 1.0000 0.0006
vn -0.1822 0.9356 -0.3023
vn -0.3670 0.4821 -0.7955
vn -0.1988 0.3176 -0.9272
vn 0.0152 0.4920 -0.8704
vn 0.0365 0.6256 -0.7793
vn -0.0853 0.7218 -0.6868
vn -0.0466 0.7032 -0.7094
vn 0.1986 0.4226 -0.8843
vn 0.4488 0.0408 -0.8927
vn -0.0002 1.0000 0.0002
# 121 vertex normals

vt 0.2184 0.1507 0.0017
vt 0.2184 0.0634 0.0010
vt 0.2747 0.0634 0.0010
vt 0.2747 0.1507 0.7958
vt 0.3310 0.0634 0.0009
vt 0.3310 0.1507 0.7509
vt 0.3873 0.0634 0.0009
vt 0.3873 0.1507 0.6127
vt 0.4437 0.0634 0.0009
vt 0.4437 0.1507 0.5087
vt 0.5000 0.0634 0.0007
vt 0.5000 0.1507 0.4621
vt 0.5563 0.0634 0.0008
vt 0.5563 0.1507 0.5222
vt 0.6127 0.0634 0.0011
vt 0.6127 0.1507 0.5998
vt 0.6690 0.0634 0.0017
vt 0.6690 0.1507 0.6532
vt 0.7253 0.0634 0.0016
vt 0.7253 0.1507 0.4969
vt 0.7816 0.0634 0.0008
vt 0.7816 0.1507 0.0001
vt 0.2184 0.2380 0.0019
vt 0.2747 0.2380 1.0000
vt 0.3310 0.2380 0.9626
vt 0.3873 0.2380 0.6473
vt 0.4437 0.2380 0.4071
vt 0.5000 0.2380 0.3525
vt 0.5563 0.2380 0.4321
vt 0.6127 0.2380 0.4294
vt 0.6690 0.2380 0.4768
vt 0.7253 0.2380 0.4279
vt 0.7816 0.2380 0.0002
vt 0.2184 0.3254 0.0012
vt 0.2747 0.3254 0.9064
vt 0.3310 0.3254 0.9466
vt 0.3873 0.3254 0.5591
vt 0.4437 0.3254 0.2432
vt 0.5000 0.3254 0.2352
vt 0.5563 0.3254 0.3804
vt 0.6127 0.3254 0.3413
vt 0.6690 0.3254 0.4460
vt 0.7253 0.3254 0.5603
vt 0.7816 0.3254 0.0008
vt 0.2184 0.4127 0.0006
vt 0.2747 0.4127 0.6668
vt 0.3310 0.4127 0.7103
vt 0.3873 0.4127 0.3805
vt 0.4437 0.4127 0.1368
vt 0.5000 0.4127 0.2493
vt 0.5563 0.4127 0.5117
vt 0.6127 0.4127 0.5355
vt 0.6690 0.4127 0.6520
vt 0.7253 0.4127 0.7750
vt 0.7816 0.4127 0.0016
vt 0.2184 0.5000 0.0007
vt 0.2747 0.5000 0.4063
vt 0.3310 0.5000 0.3140
vt 0.3873 0.5000 0.1057
vt 0.4437 0.5000 0.0106
vt 0.5000 0.5000 0.1564
vt 0.5563 0.5000 0.4378
vt 0.6127 0.5000 0.5757
vt 0.6690 0.5000 0.7272
vt 0.7253 0.5000 0.8548
vt 0.7816 0.5000 0.0021
vt 0.2184 0.5873 0.0009
vt 0.2747 0.5873 0.2813
vt 0.3310 0.5873 0.1632
vt 0.3873 0.5873 0.1523
vt 0.4437 0.5873 0.1593
vt 0.5000 0.5873 0.1648
vt 0.5563 0.5873 0.2915
vt 0.6127 0.5873 0.4878
vt 0.6690 0.5873 0.6005
vt 0.7253 0.5873 0.6256
vt 0.7816 0.5873 0.0016
vt 0.2184 0.6746 0.0006
vt 0.2747 0.6746 0.2538
vt 0.3310 0.6746 0.3262
vt 0.3873 0.6746 0.5103
vt 0.4437 0.6746 0.5228
vt 0.5000 0.6746 0.3744
vt 0.5563 0.6746 0.3365
vt 0.6127 0.6746 0.5009
vt 0.6690 0.6746 0.5039
vt 0.7253 0.6746 0.3627
vt 0.7816 0.6746 0.0006
vt 0.2184 0.7620 0.0000
vt 0.2747 0.7620 0.1933
vt 0.3310 0.7620 0.5687
vt 0.3873 0.7620 0.9660
vt 0.4437 0.7620 0.9721
vt 0.5000 0.7620 0.7560
vt 0.5563 0.7620 0.5479
vt 0.6127 0.7620 0.5342
vt 0.6690 0.7620 0.4911
vt 0.7253 0.7620 0.3806
vt 0.7816 0.7620 0.0006
vt 0.2184 0.8493 0.0000
vt 0.2747 0.8493 0.1473
vt 0.3310 0.8493 0.5303
vt 0.3873 0.8493 0.9384
vt 0.4437 0.8493 0.9820
vt 0.5000 0.8493 0.8914
vt 0.5563 0.8493 0.6607
vt 0.6127 0.8493 0.4600
vt 0.6690 0.8493 0.4371
vt 0.7253 0.8493 0.4967
vt 0.7816 0.8493 0.0011
vt 0.2184 0.9366 0.0006
vt 0.2747 0.9366 0.0001
vt 0.3310 0.9366 0.0004
vt 0.3873 0.9366 0.0010
vt 0.4437 0.9366 0.0013
vt 0.5000 0.9366 0.0017
vt 0.5563 0.9366 0.0015
vt 0.6127 0.9366 0.0007
vt 0.6690 0.9366 0.0006
vt 0.7253 0.9366 0.0010
vt 0.7816 0.9366 0.0011
# 121 texture coords

o Plane001
g Plane001
usemtl 08___Default
s 1
f 1/1/1 2/2/2 3/3/3 4/4/4 
f 4/4/4 3/3/3 5/5/5 6/6/6 
f 6/6/6 5/5/5 7/7/7 8/8/8 
f 8/8/8 7/7/7 9/9/9 10/10/10 
f 10/10/10 9/9/9 11/11/11 12/12/12 
f 12/12/12 11/11/11 13/13/13 14/14/14 
f 14/14/14 13/13/13 15/15/15 16/16/16 
f 16/16/16 15/15/15 17/17/17 18/18/18 
f 18/18/18 17/17/17 19/19/19 20/20/20 
f 20/20/20 19/19/19 21/21/21 22/22/22 
f 23/23/23 1/1/1 4/4/4 24/24/24 
f 24/24/24 4/4/4 6/6/6 25/25/25 
f 25/25/25 6/6/6 8/8/8 26/26/26 
f 26/26/26 8/8/8 10/10/10 27/27/27 
f 27/27/27 10/10/10 12/12/12 28/28/28 
f 28/28/28 12/12/12 14/14/14 29/29/29 
f 29/29/29 14/14/14 16/16/16 30/30/30 
f 30/30/30 16/16/16 18/18/18 31/31/31 
f 31/31/31 18/18/18 20/20/20 32/32/32 
f 32/32/32 20/20/20 22/22/22 33/33/33 
f 34/34/34 23/23/23 24/24/24 35/35/35 
f 35/35/35 24/24/24 25/25/25 36/36/36 
f 36/36/36 25/25/25 26/26/26 37/37/37 
f 37/37/37 26/26/26 27/27/27 38/38/38 
f 38/38/38 27/27/27 28/28/28 39/39/39 
f 39/39/39 28/28/28 29/29/29 40/40/40 
f 40/40/40 29/29/29 30/30/30 41/41/41 
f 41/41/41 30/30/30 31/31/31 42/42/42 
f 42/42/42 31/31/31 32/32/32 43/43/43 
f 43/43/43 32/32/32 33/33/33 44/44/44 
f 45/45/45 34/34/34 35/35/35 46/46/46 
f 46/46/46 35/35/35 36/36/36 47/47/47 
f 47/47/47 36/36/36 37/37/37 48/48/48 
f 48/48/48 37/37/37 38/38/38 49/49/49 
f 49/49/49 38/38/38 39/39/39 50/50/50 
f 50/50/50 39/39/39 40/40/40 51/51/51 
f 51/51/51 40/40/40 41/41/41 52/52/52 
f 52/52/52 41/41/41 42/42/42 53/53/53 
f 53/53/53 42/42/42 43/43/43 54/54/54 
f 54/54/54 43/43/43 44/44/44 55/55/55 
f 56/56/56 45/45/45 46/46/46 57/57/57 
f 57/57/57 46/46/46 47/47/47 58/58/58 
f 58/58/58 47/47/47 48/48/48 59/59/59 
f 59/59/59 48/48/48 49/49/49 60/60/60 
f 60/60/60 49/49/49 50/50/50 61/61/61 
f 61/61/61 50/50/50 51/51/51 62/62/62 
f 62/62/62 51/51/51 52/52/52 63/63/63 
f 63/63/63 52/52/52 53/53/53 64/64/64 
f 64/64/64 53/53/53 54/54/54 65/65/65 
f 65/65/65 54/54/54 55/55/55 66/66/66 
f 67/67/67 56/56/56 57/57/57 68/68/68 
f 68/68/68 57/57/57 58/58/58 69/69/69 
f 69/69/69 58/58/58 59/59/59 70/70/70 
f 70/70/70 59/59/59 60/60/60 71/71/71 
f 71/71/71 60/60/60 61/61/61 72/72/72 
f 72/72/72 61/61/61 62/62/62 73/73/73 
f 73/73/73 62/62/62 63/63/63 74/74/74 
f 74/74/74 63/63/63 64/64/64 75/75/75 
f 75/75/75 64/64/64 65/65/65 76/76/76 
f 76/76/76 65/65/65 66/66/66 77/77/77 
f 78/78/78 67/67/67 68/68/68 79/79/79 
f 79/79/79 68/68/68 69/69/69 80/80/80 
f 80/80/80 69/69/69 70/70/70 81/81/81 
f 81/81/81 70/70/70 71/71/71 82/82/82 
f 82/82/82 71/71/71 72/72/72 83/83/83 
f 83/83/83 72/72/72 73/73/73 84/84/84 
f 84/84/84 73/73/73 74/74/74 85/85/85 
f 85/85/85 74/74/74 75/75/75 86/86/86 
f 86/86/86 75/75/75 76/76/76 87/87/87 
f 87/87/87 76/76/76 77/77/77 88/88/88 
f 89/89/89 78/78/78 79/79/79 90/90/90 
f 90/90/90 79/79/79 80/80/80 91/91/91 
f 91/91/91 80/80/80 81/81/81 92/92/92 
f 92/92/92 81/81/81 82/82/82 93/93/93 
f 93/93/93 82/82/82 83/83/83 94/94/94 
f 94/94/94 83/83/83 84/84/84 95/95/95 
f 95/95/95 84/84/84 85/85/85 96/96/96 
f 96/96/96 85/85/85 86/86/86 97/97/97 
f 97/97/97 86/86/86 87/87/87 98/98/98 
f 98/98/98 87/87/87 88/88/88 99/99/99 
f 100/100/100 89/89/89 90/90/90 101/101/101 
f 101/101/101 90/90/90 91/91/91 102/102/102 
f 102/102/102 91/91/91 92/92/92 103/103/103 
f 103/103/103 92/92/92 93/93/93 104/104/104 
f 104/104/104 93/93/93 94/94/94 105/105/105 
f 105/105/105 94/94/94 95/95/95 106/106/106 
f 106/106/106 95/95/95 96/96/96 107/107/107 
f 107/107/107 96/96/96 97/97/97 108/108/108 
f 108/108/108 97/97/97 98/98/98 109/109/109 
f 109/109/109 98/98/98 99/99/99 110/110/110 
f 111/111/111 100/100/100 101/101/101 112/112/112 
f 112/112/112 101/101/101 102/102/102 113/113/113 
f 113/113/113 102/102/102 103/103/103 114/114/114 
f 114/114/114 103/103/103 104/104/104 115/115/115 
f 115/115/115 104/104/104 105/105/105 116/116/116 
f 116/116/116 105/105/105 106/106/106 117/117/117 
f 117/117/117 106/106/106 107/107/107 118/118/118 
f 118/118/118 107/107/107 108/108/108 119/119/119 
f 119/119/119 108/108/108 109/109/109 120/120/120 
f 120/120/120 109/109/109 110/110/110 121/121/121 
# 100 polygons

