# 3ds Max Wavefront OBJ Exporter v0.97b - (c)2007 guruware
# File Created: 23.02.2022 09:47:24

mtllib mdl_smg.mtl

#
# object Cylinder001
#

v  0.1333 0.8014 -0.0000
v  -0.1191 0.8014 -0.0000
v  -0.2453 1.0199 -0.0000
v  -0.1191 1.2385 0.0000
v  0.1333 1.2385 0.0000
v  0.2595 1.0199 -0.0000
v  0.1333 1.2385 0.4327
v  0.2595 1.0199 0.4327
v  -0.1191 1.2385 0.4327
v  -0.2453 1.0199 0.4327
v  -0.1191 0.8014 0.4327
v  0.1333 0.8014 0.4327
v  0.1333 1.2385 0.8654
v  0.2595 1.0199 0.8654
v  -0.1191 1.2385 0.8654
v  -0.2453 1.0199 0.8654
v  -0.1191 0.8014 0.8654
v  0.1333 0.8014 0.8654
v  0.1333 1.2385 1.2981
v  0.2595 1.0199 1.2981
v  -0.1191 1.2385 1.2981
v  -0.2453 1.0199 1.2981
v  -0.1191 0.8014 1.2981
v  0.1333 0.8014 1.2981
v  0.1333 1.2385 1.7308
v  0.2595 1.0199 1.7308
v  -0.1191 1.2385 1.7308
v  -0.2453 1.0199 1.7308
v  -0.1191 0.8014 1.7308
v  0.1333 0.8014 1.7308
v  0.1333 1.2385 2.1635
v  0.2595 1.0199 2.1635
v  -0.1191 1.2385 2.1635
v  -0.2453 1.0199 2.1635
v  -0.1191 0.8014 2.1635
v  0.1333 0.8014 2.1635
v  0.0988 0.8611 1.5262
v  0.1905 1.0199 1.5262
v  0.0988 1.1788 1.5262
v  -0.0846 1.1788 1.5262
v  -0.1763 1.0199 1.5262
v  -0.0846 0.8611 1.5262
# 42 vertices

vn 0.3962 -0.6862 -0.6100
vn -0.3962 -0.6862 -0.6100
vn -0.7924 0.0000 -0.6100
vn -0.3962 0.6862 -0.6100
vn 0.3962 0.6862 -0.6100
vn 0.7924 0.0000 -0.6100
vn 0.5000 0.8660 0.0000
vn 1.0000 -0.0000 -0.0000
vn -0.5000 0.8660 0.0000
vn -1.0000 -0.0000 -0.0000
vn -0.5000 -0.8660 -0.0000
vn 0.5000 -0.8660 -0.0000
vn 0.1734 0.3004 0.9379
vn 0.3468 0.0000 0.9379
vn -0.1734 0.3004 0.9379
vn -0.3468 -0.0000 0.9379
vn -0.1734 -0.3004 0.9379
vn 0.1734 -0.3004 0.9379
vn -0.3799 0.6580 0.6502
vn -0.7598 -0.0000 0.6502
vn -0.3799 -0.6580 0.6502
vn 0.3799 -0.6580 0.6502
vn 0.7598 -0.0000 0.6502
vn 0.3799 0.6580 0.6502
# 24 vertex normals

vt 0.3436 0.0000 0.1139
vt 0.0936 0.0000 -1.0408
vt 0.2500 0.0000 -1.1547
vt 0.6564 0.0000 -0.1139
vt 0.9064 0.0000 1.0408
vt 0.7500 0.0000 1.1547
vt 0.9064 0.2000 1.0408
vt 0.7500 0.2000 1.1547
vt -0.0936 0.0000 1.0408
vt 0.0936 0.0000 1.0408
vt 0.0936 0.2000 1.0408
vt -0.0936 0.2000 1.0408
vt 0.2500 0.0000 1.1547
vt 0.2500 0.2000 1.1547
vt 0.4064 0.0000 1.0408
vt 0.4064 0.2000 1.0408
vt 0.5936 0.0000 1.0408
vt 0.5936 0.2000 1.0408
vt 0.9064 0.4000 1.0408
vt 0.7500 0.4000 1.1547
vt 0.0936 0.4000 1.0408
vt -0.0936 0.4000 1.0408
vt 0.2500 0.4000 1.1547
vt 0.4064 0.4000 1.0408
vt 0.5936 0.4000 1.0408
vt 0.9064 0.6000 1.0408
vt 0.7500 0.6000 1.1547
vt 0.0936 0.6000 1.0408
vt -0.0936 0.6000 1.0408
vt 0.2500 0.6000 1.1547
vt 0.4064 0.6000 1.0408
vt 0.5936 0.6000 1.0408
vt 0.9064 0.8000 1.0408
vt 0.7500 0.8000 1.1547
vt 0.0936 0.8000 1.0408
vt -0.0936 0.8000 1.0408
vt 0.2500 0.8000 1.1547
vt 0.4064 0.8000 1.0408
vt 0.5936 0.8000 1.0408
vt 0.9064 1.0000 1.0408
vt 0.7500 1.0000 1.1547
vt 0.0936 1.0000 1.0408
vt -0.0936 1.0000 1.0408
vt 0.2500 1.0000 1.1547
vt 0.4064 1.0000 1.0408
vt 0.5936 1.0000 1.0408
vt 0.6564 1.0000 -0.1139
vt 0.2500 1.0000 -1.1547
vt 0.0936 1.0000 -1.0408
# 49 texture coords

o Cylinder001
g Cylinder001
usemtl 01___Default
s 1
f 1/1/1 2/2/2 3/3/3 4/4/4 5/5/5 6/6/6 
s 8
f 6/6/6 5/5/5 7/7/7 8/8/8 
f 5/9/5 4/10/4 9/11/9 7/12/7 
f 4/10/4 3/13/3 10/14/10 9/11/9 
f 3/13/3 2/15/2 11/16/11 10/14/10 
f 2/15/2 1/17/1 12/18/12 11/16/11 
f 1/17/1 6/6/6 8/8/8 12/18/12 
f 8/8/8 7/7/7 13/19/7 14/20/8 
f 7/12/7 9/11/9 15/21/9 13/22/7 
f 9/11/9 10/14/10 16/23/10 15/21/9 
f 10/14/10 11/16/11 17/24/11 16/23/10 
f 11/16/11 12/18/12 18/25/12 17/24/11 
f 12/18/12 8/8/8 14/20/8 18/25/12 
f 14/20/8 13/19/7 19/26/7 20/27/8 
f 13/22/7 15/21/9 21/28/9 19/29/7 
f 15/21/9 16/23/10 22/30/10 21/28/9 
f 16/23/10 17/24/11 23/31/11 22/30/10 
f 17/24/11 18/25/12 24/32/12 23/31/11 
f 18/25/12 14/20/8 20/27/8 24/32/12 
f 20/27/8 19/26/7 25/33/7 26/34/8 
f 19/29/7 21/28/9 27/35/9 25/36/7 
f 21/28/9 22/30/10 28/37/10 27/35/9 
f 22/30/10 23/31/11 29/38/11 28/37/10 
f 23/31/11 24/32/12 30/39/12 29/38/11 
f 24/32/12 20/27/8 26/34/8 30/39/12 
f 26/34/8 25/33/7 31/40/13 32/41/14 
f 25/36/7 27/35/9 33/42/15 31/43/13 
f 27/35/9 28/37/10 34/44/16 33/42/15 
f 28/37/10 29/38/11 35/45/17 34/44/16 
f 29/38/11 30/39/12 36/46/18 35/45/17 
f 30/39/12 26/34/8 32/41/14 36/46/18 
s 1
f 37/46/19 38/41/20 39/40/21 40/47/22 41/48/23 42/49/24 
s off
f 32/41/14 31/40/13 39/40/21 38/41/20 
f 31/40/13 33/47/15 40/47/22 39/40/21 
f 33/47/15 34/48/16 41/48/23 40/47/22 
f 34/48/16 35/49/17 42/49/24 41/48/23 
f 35/49/17 36/46/18 37/46/19 42/49/24 
f 36/46/18 32/41/14 38/41/20 37/46/19 
# 38 polygons

#
# object Cylinder002
#

v  0.1982 0.1453 -0.0000
v  -0.1840 0.1453 -0.0000
v  -0.3751 0.4763 -0.0000
v  -0.1840 0.8073 0.0000
v  0.1982 0.8073 0.0000
v  0.3893 0.4763 -0.0000
v  0.1982 0.8073 0.4327
v  0.3893 0.4763 0.4327
v  -0.1840 0.8073 0.4327
v  -0.3751 0.4763 0.4327
v  -0.1840 0.1453 0.4327
v  0.1982 0.1453 0.4327
v  0.1982 0.8073 0.8654
v  0.3893 0.4763 0.8654
v  -0.1840 0.8073 0.8654
v  -0.3751 0.4763 0.8654
v  -0.1840 0.1453 0.8654
v  0.1982 0.1453 0.8654
v  0.1982 0.8073 1.2981
v  0.3893 0.4763 1.2981
v  -0.1840 0.8073 1.2981
v  -0.3751 0.4763 1.2981
v  -0.1840 0.1453 1.2981
v  0.1982 0.1453 1.2981
v  0.1982 0.8073 1.7308
v  0.3893 0.4763 1.7308
v  -0.1840 0.8073 1.7308
v  -0.3751 0.4763 1.7308
v  -0.1840 0.1453 1.7308
v  0.1982 0.1453 1.7308
v  0.1982 0.8073 2.1635
v  0.3893 0.4763 2.1635
v  -0.1840 0.8073 2.1635
v  -0.3751 0.4763 2.1635
v  -0.1840 0.1453 2.1635
v  0.1982 0.1453 2.1635
v  0.1285 0.2659 0.9089
v  0.2500 0.4763 0.9089
v  0.1285 0.6867 0.9089
v  -0.1144 0.6867 0.9089
v  -0.2358 0.4763 0.9089
v  -0.1144 0.2659 0.9089
# 42 vertices

vn 0.3962 -0.6862 -0.6100
vn -0.3962 -0.6862 -0.6100
vn -0.7924 0.0000 -0.6100
vn -0.3962 0.6862 -0.6100
vn 0.3962 0.6862 -0.6100
vn 0.7924 0.0000 -0.6100
vn 0.5000 0.8660 0.0000
vn 1.0000 -0.0000 -0.0000
vn -0.5000 0.8660 0.0000
vn -1.0000 -0.0000 -0.0000
vn -0.5000 -0.8660 -0.0000
vn 0.5000 -0.8660 -0.0000
vn 0.1665 0.2884 0.9429
vn 0.3330 -0.0000 0.9429
vn -0.1665 0.2884 0.9429
vn -0.3330 0.0000 0.9429
vn -0.1665 -0.2884 0.9429
vn 0.1665 -0.2884 0.9429
vn -0.3853 0.6673 0.6374
vn -0.7706 -0.0000 0.6374
vn -0.3853 -0.6673 0.6374
vn 0.3853 -0.6673 0.6374
vn 0.7706 -0.0000 0.6374
vn 0.3853 0.6673 0.6374
# 24 vertex normals

vt 0.3436 0.0000 0.1139
vt 0.0936 0.0000 -1.0408
vt 0.2500 0.0000 -1.1547
vt 0.6564 0.0000 -0.1139
vt 0.9064 0.0000 1.0408
vt 0.7500 0.0000 1.1547
vt 0.9064 0.2000 1.0408
vt 0.7500 0.2000 1.1547
vt -0.0936 0.0000 1.0408
vt 0.0936 0.0000 1.0408
vt 0.0936 0.2000 1.0408
vt -0.0936 0.2000 1.0408
vt 0.2500 0.0000 1.1547
vt 0.2500 0.2000 1.1547
vt 0.4064 0.0000 1.0408
vt 0.4064 0.2000 1.0408
vt 0.5936 0.0000 1.0408
vt 0.5936 0.2000 1.0408
vt 0.9064 0.4000 1.0408
vt 0.7500 0.4000 1.1547
vt 0.0936 0.4000 1.0408
vt -0.0936 0.4000 1.0408
vt 0.2500 0.4000 1.1547
vt 0.4064 0.4000 1.0408
vt 0.5936 0.4000 1.0408
vt 0.9064 0.6000 1.0408
vt 0.7500 0.6000 1.1547
vt 0.0936 0.6000 1.0408
vt -0.0936 0.6000 1.0408
vt 0.2500 0.6000 1.1547
vt 0.4064 0.6000 1.0408
vt 0.5936 0.6000 1.0408
vt 0.9064 0.8000 1.0408
vt 0.7500 0.8000 1.1547
vt 0.0936 0.8000 1.0408
vt -0.0936 0.8000 1.0408
vt 0.2500 0.8000 1.1547
vt 0.4064 0.8000 1.0408
vt 0.5936 0.8000 1.0408
vt 0.9064 1.0000 1.0408
vt 0.7500 1.0000 1.1547
vt 0.0936 1.0000 1.0408
vt -0.0936 1.0000 1.0408
vt 0.2500 1.0000 1.1547
vt 0.4064 1.0000 1.0408
vt 0.5936 1.0000 1.0408
vt 0.6564 1.0000 -0.1139
vt 0.2500 1.0000 -1.1547
vt 0.0936 1.0000 -1.0408
# 49 texture coords

o Cylinder002
g Cylinder002
usemtl 01___Default
s 1
f 43/50/25 44/51/26 45/52/27 46/53/28 47/54/29 48/55/30 
s 8
f 48/55/30 47/54/29 49/56/31 50/57/32 
f 47/58/29 46/59/28 51/60/33 49/61/31 
f 46/59/28 45/62/27 52/63/34 51/60/33 
f 45/62/27 44/64/26 53/65/35 52/63/34 
f 44/64/26 43/66/25 54/67/36 53/65/35 
f 43/66/25 48/55/30 50/57/32 54/67/36 
f 50/57/32 49/56/31 55/68/31 56/69/32 
f 49/61/31 51/60/33 57/70/33 55/71/31 
f 51/60/33 52/63/34 58/72/34 57/70/33 
f 52/63/34 53/65/35 59/73/35 58/72/34 
f 53/65/35 54/67/36 60/74/36 59/73/35 
f 54/67/36 50/57/32 56/69/32 60/74/36 
f 56/69/32 55/68/31 61/75/31 62/76/32 
f 55/71/31 57/70/33 63/77/33 61/78/31 
f 57/70/33 58/72/34 64/79/34 63/77/33 
f 58/72/34 59/73/35 65/80/35 64/79/34 
f 59/73/35 60/74/36 66/81/36 65/80/35 
f 60/74/36 56/69/32 62/76/32 66/81/36 
f 62/76/32 61/75/31 67/82/31 68/83/32 
f 61/78/31 63/77/33 69/84/33 67/85/31 
f 63/77/33 64/79/34 70/86/34 69/84/33 
f 64/79/34 65/80/35 71/87/35 70/86/34 
f 65/80/35 66/81/36 72/88/36 71/87/35 
f 66/81/36 62/76/32 68/83/32 72/88/36 
f 68/83/32 67/82/31 73/89/37 74/90/38 
f 67/85/31 69/84/33 75/91/39 73/92/37 
f 69/84/33 70/86/34 76/93/40 75/91/39 
f 70/86/34 71/87/35 77/94/41 76/93/40 
f 71/87/35 72/88/36 78/95/42 77/94/41 
f 72/88/36 68/83/32 74/90/38 78/95/42 
s 1
f 79/95/43 80/90/44 81/89/45 82/96/46 83/97/47 84/98/48 
s off
f 74/90/38 73/89/37 81/89/45 80/90/44 
f 73/89/37 75/96/39 82/96/46 81/89/45 
f 75/96/39 76/97/40 83/97/47 82/96/46 
f 76/97/40 77/98/41 84/98/48 83/97/47 
f 77/98/41 78/95/42 79/95/43 84/98/48 
f 78/95/42 74/90/38 80/90/44 79/95/43 
# 38 polygons

#
# object Box001
#

v  -0.2493 0.3662 0.0293
v  -0.2493 0.5094 0.0293
v  -0.2493 0.5094 -0.6535
v  -0.2493 0.3662 -0.6535
v  -0.2493 0.5094 -1.3362
v  -0.2493 0.3662 -1.3362
v  -0.2493 0.5094 -2.3319
v  -0.2493 0.1355 -2.0190
v  -0.2493 0.8834 0.0293
v  -0.2493 0.8834 -0.6535
v  -0.2493 0.8834 -1.3362
v  -0.2493 0.8834 -2.3326
v  -0.2493 1.2573 0.0293
v  -0.2493 1.2573 -0.6535
v  -0.2493 1.2573 -1.3362
v  -0.2493 1.2573 -2.0190
v  0.2652 0.3662 0.0293
v  0.2652 0.3662 -0.6535
v  0.2652 0.5094 -0.6535
v  0.2652 0.5094 0.0293
v  0.2652 0.3662 -1.3362
v  0.2652 0.5094 -1.3362
v  0.2652 0.1355 -2.0190
v  0.2652 0.5094 -2.3319
v  0.2652 0.8834 -0.6535
v  0.2652 0.8834 0.0293
v  0.2652 0.8834 -1.3362
v  0.2652 0.8834 -2.3326
v  0.2652 1.2573 -0.6535
v  0.2652 1.2573 0.0293
v  0.0989 0.9431 -0.7132
v  0.0989 0.9431 -1.2765
v  0.0989 1.1976 -1.2765
v  0.0989 1.1976 -0.7132
v  0.2652 1.2573 -2.0190
v  0.2652 1.2573 -1.3362
v  -0.0778 0.3662 -0.6535
v  -0.0778 0.3662 0.0293
v  -0.0778 0.3662 -1.3362
v  -0.0778 0.1355 -2.0190
v  0.0937 0.3662 -0.6535
v  0.0937 0.3662 0.0293
v  0.0937 0.3662 -1.3362
v  0.0937 0.1355 -2.0190
v  -0.0778 0.5094 -2.3319
v  -0.0778 0.8834 -2.3326
v  -0.0778 1.2573 -2.0190
v  0.0937 0.5094 -2.3319
v  0.0937 0.8834 -2.3326
v  0.0937 1.2573 -2.0190
v  -0.0778 1.2573 -1.3362
v  -0.0778 1.2573 -0.6535
v  -0.0778 1.2573 0.0293
v  0.0937 1.2573 -1.3362
v  0.0937 1.2573 -0.6535
v  0.0937 1.2573 0.0293
v  -0.0778 0.8834 0.0293
v  -0.0778 0.5094 0.0293
v  0.0937 0.8834 0.0293
v  0.0937 0.5094 0.0293
v  0.2756 0.9132 -1.3063
v  0.2756 0.9132 -0.6833
v  0.2756 1.2274 -1.3063
v  0.2756 1.2274 -0.6833
# 64 vertices

vn -0.5774 -0.5774 0.5774
vn -0.7071 0.0000 0.7071
vn -1.0000 0.0000 0.0000
vn -0.7071 -0.7071 -0.0000
vn -0.7455 -0.6577 0.1081
vn -0.6379 -0.2636 -0.7236
vn -0.5994 -0.7706 -0.2166
vn -0.7071 -0.0000 0.7071
vn -0.6375 0.2627 -0.7243
vn -0.5774 0.5774 0.5774
vn -0.7071 0.7071 0.0000
vn -0.6232 0.7088 -0.3306
vn 0.5774 -0.5774 0.5774
vn 0.7071 -0.7071 -0.0000
vn 1.0000 0.0000 -0.0000
vn 0.7071 -0.0000 0.7071
vn 0.7455 -0.6576 0.1081
vn 1.0000 -0.0000 0.0000
vn 0.5994 -0.7705 -0.2167
vn 0.6379 -0.2636 -0.7236
vn 0.9983 -0.0410 0.0410
vn 0.9983 -0.0410 -0.0410
vn 0.6375 0.2627 -0.7243
vn 0.6742 0.7365 0.0556
vn 0.5774 0.5774 0.5774
vn 0.6676 0.5264 -0.5264
vn 0.6676 0.5264 0.5264
vn 0.6676 -0.5264 0.5264
vn 0.6676 -0.5264 -0.5264
vn 0.6232 0.7088 -0.3306
vn 0.6742 0.7365 -0.0556
vn -0.0000 -1.0000 -0.0000
vn 0.0000 -0.7071 0.7071
vn -0.0000 -0.9868 0.1622
vn -0.0000 -0.9627 -0.2707
vn -0.0000 -0.3423 -0.9396
vn -0.0000 0.3410 -0.9401
vn 0.0000 0.9063 -0.4227
vn 0.0000 1.0000 0.0000
vn 0.0000 0.7071 0.7071
vn 0.0000 -0.0000 1.0000
vn 0.9834 0.1284 0.1284
vn 0.9834 0.1284 -0.1284
vn 0.9834 -0.1284 0.1284
vn 0.9834 -0.1284 -0.1284
# 45 vertex normals

vt 1.0000 0.2057 0.0000
vt 1.0000 0.3333 0.0000
vt 0.7109 0.3333 0.0000
vt 0.7109 0.2057 0.0000
vt 0.4219 0.3333 0.0000
vt 0.4219 0.2057 0.0000
vt 0.0003 0.3333 0.0000
vt 0.1328 0.0000 0.0000
vt 1.0000 0.6667 0.0000
vt 0.7109 0.6667 0.0000
vt 0.4219 0.6667 0.0000
vt 0.0000 0.6667 0.0000
vt 1.0000 1.0000 0.0000
vt 0.7109 1.0000 0.0000
vt 0.4219 1.0000 0.0000
vt 0.1328 1.0000 0.0000
vt 0.0000 0.2057 0.9802
vt 0.2891 0.2057 0.9802
vt 0.2891 0.3333 0.9802
vt 0.0000 0.3333 0.9802
vt 0.5781 0.2057 0.9802
vt 0.5781 0.3333 0.9802
vt 0.8672 0.0000 0.9802
vt 0.9997 0.3333 0.9802
vt 0.2891 0.6667 0.9802
vt 0.0000 0.6667 0.9802
vt 0.5781 0.6667 0.9802
vt 1.0000 0.6667 0.9802
vt 0.2891 1.0000 0.9802
vt 0.0000 1.0000 0.9802
vt 0.3144 0.7199 0.6634
vt 0.5528 0.7199 0.6634
vt 0.5528 0.9467 0.6634
vt 0.3144 0.9467 0.6634
vt 0.8672 1.0000 0.9802
vt 0.5781 1.0000 0.9802
vt 0.0000 0.0000 0.2057
vt 0.2891 0.0000 0.2057
vt 0.2891 0.3267 0.2057
vt 0.0000 0.3267 0.2057
vt 0.5781 0.0000 0.2057
vt 0.5781 0.3267 0.2057
vt 0.8672 0.0000 0.0000
vt 0.8672 0.3267 0.0000
vt 0.2891 0.6535 0.2057
vt 0.0000 0.6535 0.2057
vt 0.5781 0.6535 0.2057
vt 0.8672 0.6535 0.0000
vt 0.2891 0.9802 0.2057
vt 0.0000 0.9802 0.2057
vt 0.5781 0.9802 0.2057
vt 0.8672 0.9802 0.0000
vt 0.9997 0.0000 0.3333
vt 0.9997 0.3267 0.3333
vt 0.3333 0.0000 0.9997
vt 0.6667 0.0000 1.0000
vt 0.6667 0.3267 1.0000
vt 0.3333 0.3267 0.9997
vt 0.0000 0.0000 0.6667
vt 0.1328 0.0000 1.0000
vt 0.1328 0.3267 1.0000
vt 0.0000 0.3267 0.6667
vt 0.9997 0.6535 0.3333
vt 0.6667 0.6535 1.0000
vt 0.3333 0.6535 0.9997
vt 0.1328 0.6535 1.0000
vt 0.0000 0.6535 0.6667
vt 0.9997 0.9802 0.3333
vt 0.6667 0.9802 1.0000
vt 0.3333 0.9802 0.9997
vt 0.1328 0.9802 1.0000
vt 0.0000 0.9802 0.6667
vt 0.4219 0.0000 1.0000
vt 0.4219 0.3267 1.0000
vt 0.7109 0.0000 1.0000
vt 0.7109 0.3267 1.0000
vt 1.0000 0.0000 1.0000
vt 1.0000 0.3267 1.0000
vt 0.4219 0.6535 1.0000
vt 0.7109 0.6535 1.0000
vt 1.0000 0.6535 1.0000
vt 0.4219 0.9802 1.0000
vt 0.7109 0.9802 1.0000
vt 1.0000 0.9802 1.0000
vt 0.0000 0.0000 0.0000
vt 0.3333 0.0000 0.0000
vt 0.3333 0.3267 0.0000
vt 0.0000 0.3267 0.0000
vt 0.6667 0.0000 0.0000
vt 0.6667 0.3267 0.0000
vt 0.7943 0.0000 0.0000
vt 0.7943 0.3267 0.0000
vt 0.3333 0.6535 0.0000
vt 0.0000 0.6535 0.0000
vt 0.6667 0.6535 0.0000
vt 0.7943 0.6535 0.0000
vt 0.3333 0.9802 0.0000
vt 0.0000 0.9802 0.0000
vt 0.6667 0.9802 0.0000
vt 0.7943 0.9802 0.0000
vt 0.5655 0.6933 1.0000
vt 0.3017 0.6933 1.0000
vt 0.5655 0.9734 1.0000
vt 0.3017 0.9734 1.0000
vt 0.6983 1.0000 0.6933
vt 0.4345 1.0000 0.6933
vt 0.4472 0.6634 0.7199
vt 0.6856 0.6634 0.7199
vt 0.3067 1.0000 0.5655
vt 0.0266 1.0000 0.5655
vt 0.0533 0.6634 0.5528
vt 0.2801 0.6634 0.5528
vt 0.5655 1.0000 0.9734
vt 0.3017 1.0000 0.9734
vt 0.3144 0.6634 0.9467
vt 0.5528 0.6634 0.9467
vt 0.9734 1.0000 0.3017
vt 0.6933 1.0000 0.3017
vt 0.7199 0.6634 0.3144
vt 0.9467 0.6634 0.3144
# 120 texture coords

o Box001
g Box001
usemtl 02___Default
s 2
f 85/99/49 86/100/50 87/101/51 88/102/52 
f 88/102/52 87/101/51 89/103/51 90/104/53 
f 90/104/53 89/103/51 91/105/54 92/106/55 
f 86/100/50 93/107/56 94/108/51 87/101/51 
f 87/101/51 94/108/51 95/109/51 89/103/51 
f 89/103/51 95/109/51 96/110/57 91/105/54 
f 93/107/56 97/111/58 98/112/59 94/108/51 
f 94/108/51 98/112/59 99/113/59 95/109/51 
f 95/109/51 99/113/59 100/114/60 96/110/57 
s 4
f 101/115/61 102/116/62 103/117/63 104/118/64 
f 102/116/62 105/119/65 106/120/66 103/117/63 
f 105/119/65 107/121/67 108/122/68 106/120/66 
f 104/118/64 103/117/63 109/123/69 110/124/64 
f 103/117/63 106/120/66 111/125/70 109/123/69 
f 106/120/66 108/122/68 112/126/71 111/125/70 
f 110/124/64 109/123/69 113/127/72 114/128/73 
f 115/129/74 116/130/75 117/131/76 118/132/77 
f 111/125/70 112/126/71 119/133/78 120/134/79 
s 8
f 85/135/49 88/136/52 121/137/80 122/138/81 
f 88/136/52 90/139/53 123/140/82 121/137/80 
f 90/139/53 92/141/55 124/142/83 123/140/82 
f 122/138/81 121/137/80 125/143/80 126/144/81 
f 121/137/80 123/140/82 127/145/82 125/143/80 
f 123/140/82 124/142/83 128/146/83 127/145/82 
f 126/144/81 125/143/80 102/147/62 101/148/61 
f 125/143/80 127/145/82 105/149/65 102/147/62 
f 127/145/82 128/146/83 107/150/67 105/149/65 
s 16
f 92/141/55 91/151/54 129/152/84 124/142/83 
f 91/153/54 96/154/57 130/155/85 129/156/84 
f 96/157/57 100/158/60 131/159/86 130/160/85 
f 124/142/83 129/152/84 132/161/84 128/146/83 
f 129/156/84 130/155/85 133/162/85 132/163/84 
f 130/160/85 131/159/86 134/164/86 133/165/85 
f 128/146/83 132/161/84 108/166/68 107/150/67 
f 132/163/84 133/162/85 112/167/71 108/168/68 
f 133/165/85 134/164/86 119/169/78 112/170/71 
s 32
f 100/158/60 99/171/59 135/172/87 131/159/86 
f 99/171/59 98/173/59 136/174/87 135/172/87 
f 98/173/59 97/175/58 137/176/88 136/174/87 
f 131/159/86 135/172/87 138/177/87 134/164/86 
f 135/172/87 136/174/87 139/178/87 138/177/87 
f 136/174/87 137/176/88 140/179/88 139/178/87 
f 134/164/86 138/177/87 120/180/79 119/169/78 
f 138/177/87 139/178/87 113/181/72 120/180/79 
f 139/178/87 140/179/88 114/182/73 113/181/72 
s 64
f 97/183/58 93/184/56 141/185/89 137/186/88 
f 93/184/56 86/187/50 142/188/89 141/185/89 
f 86/187/50 85/189/49 122/190/81 142/188/89 
f 137/186/88 141/185/89 143/191/89 140/192/88 
f 141/185/89 142/188/89 144/193/89 143/191/89 
f 142/188/89 122/190/81 126/194/81 144/193/89 
f 140/192/88 143/191/89 110/195/64 114/196/73 
f 143/191/89 144/193/89 104/197/64 110/195/64 
f 144/193/89 126/194/81 101/198/61 104/197/64 
s off
f 109/123/69 111/125/70 145/199/90 146/200/91 
f 111/125/70 120/134/79 147/201/92 145/199/90 
f 120/134/79 113/127/72 148/202/93 147/201/92 
f 113/127/72 109/123/69 146/200/91 148/202/93 
f 146/203/91 145/204/90 116/205/75 115/206/74 
f 145/207/90 147/208/92 117/209/76 116/210/75 
f 147/211/92 148/212/93 118/213/77 117/214/76 
f 148/215/93 146/216/91 115/217/74 118/218/77 
# 62 polygons

#
# object Line001
#

v  0.0870 0.4652 -1.0781
v  0.0870 0.3682 -0.7257
v  0.0870 0.1548 -0.8447
v  0.0870 -0.0510 -1.2511
v  0.0870 -0.0272 -0.8883
v  0.0870 -0.1539 -1.1702
v  0.0870 -0.1681 -1.1403
v  0.0870 -0.1819 -1.1110
v  0.0870 -0.1947 -1.0829
v  0.0870 -0.2060 -1.0566
v  0.0870 -0.1475 -0.8544
v  0.0870 -0.2155 -1.0326
v  0.0870 -0.2225 -1.0117
v  0.0870 -0.2266 -0.9943
v  0.0870 -0.2282 -0.9780
v  0.0870 -0.2281 -0.9598
v  0.0870 -0.2266 -0.9403
v  0.0870 -0.2240 -0.9195
v  0.0870 -0.2205 -0.8978
v  0.0870 -0.2120 -0.8530
v  0.0870 -0.2164 -0.8756
v  -0.0630 0.1548 -0.8447
v  -0.0630 0.3682 -0.7257
v  -0.0630 0.4652 -1.0781
v  -0.0630 -0.0510 -1.2511
v  -0.0630 -0.0272 -0.8883
v  -0.0630 -0.1539 -1.1702
v  -0.0630 -0.1681 -1.1403
v  -0.0630 -0.1819 -1.1110
v  -0.0630 -0.1947 -1.0829
v  -0.0630 -0.2060 -1.0566
v  -0.0630 -0.1475 -0.8544
v  -0.0630 -0.2155 -1.0326
v  -0.0630 -0.2225 -1.0117
v  -0.0630 -0.2266 -0.9943
v  -0.0630 -0.2282 -0.9780
v  -0.0630 -0.2281 -0.9598
v  -0.0630 -0.2266 -0.9403
v  -0.0630 -0.2240 -0.9195
v  -0.0630 -0.2205 -0.8978
v  -0.0630 -0.2120 -0.8530
v  -0.0630 -0.2164 -0.8756
# 42 vertices

vn 0.5803 0.7189 -0.3827
vn 0.5658 0.3186 0.7605
vn 0.7391 -0.2447 0.6276
vn 0.6143 -0.1346 -0.7775
vn 0.7685 0.0126 0.6397
vn 0.6593 -0.5872 -0.4696
vn 0.7065 -0.6397 -0.3027
vn 0.7058 -0.6430 -0.2975
vn 0.7049 -0.6484 -0.2876
vn 0.7035 -0.6569 -0.2712
vn 0.6797 0.1078 0.7255
vn 0.7013 -0.6697 -0.2441
vn 0.6972 -0.6892 -0.1973
vn 0.6920 -0.7120 -0.1189
vn 0.6958 -0.7175 -0.0328
vn 0.6992 -0.7143 0.0297
vn 0.7016 -0.7089 0.0726
vn 0.7034 -0.7035 0.1016
vn 0.7048 -0.6991 0.1203
vn 0.5868 -0.5091 0.6296
vn 0.7060 -0.6961 0.1306
vn -0.7391 -0.2447 0.6276
vn -0.5658 0.3186 0.7605
vn -0.5803 0.7189 -0.3827
vn -0.6143 -0.1346 -0.7775
vn -0.7685 0.0126 0.6397
vn -0.6593 -0.5872 -0.4696
vn -0.7065 -0.6397 -0.3027
vn -0.7058 -0.6430 -0.2975
vn -0.7049 -0.6484 -0.2876
vn -0.7035 -0.6569 -0.2712
vn -0.6797 0.1078 0.7255
vn -0.7013 -0.6697 -0.2441
vn -0.6972 -0.6892 -0.1973
vn -0.6920 -0.7120 -0.1189
vn -0.6958 -0.7175 -0.0328
vn -0.6992 -0.7143 0.0297
vn -0.7016 -0.7089 0.0726
vn -0.7034 -0.7035 0.1016
vn -0.7048 -0.6991 0.1203
vn -0.5868 -0.5091 0.6296
vn -0.7060 -0.6961 0.1306
# 42 vertex normals

vt 0.9453 0.9934 1.0000
vt 0.0896 1.0000 1.0000
vt 0.2189 0.6321 1.0000
vt 1.0000 0.1524 1.0000
vt 0.1990 0.3429 1.0000
vt 0.7512 0.0341 1.0000
vt 0.6748 0.0258 1.0000
vt 0.5999 0.0179 1.0000
vt 0.5284 0.0109 1.0000
vt 0.4618 0.0052 1.0000
vt 0.0448 0.1787 1.0000
vt 0.4019 0.0015 1.0000
vt 0.3502 0.0000 1.0000
vt 0.3085 0.0013 1.0000
vt 0.2706 0.0059 1.0000
vt 0.2299 0.0138 1.0000
vt 0.1868 0.0245 1.0000
vt 0.1418 0.0373 1.0000
vt 0.0953 0.0518 1.0000
vt 0.0000 0.0834 1.0000
vt 0.0479 0.0673 1.0000
vt 0.7811 0.6321 0.0000
vt 0.9104 1.0000 0.0000
vt 0.0547 0.9934 0.0000
vt 0.0000 0.1524 0.0000
vt 0.8010 0.3429 0.0000
vt 0.2488 0.0341 0.0000
vt 0.3252 0.0258 0.0000
vt 0.4001 0.0179 0.0000
vt 0.4716 0.0109 0.0000
vt 0.5382 0.0052 0.0000
vt 0.9552 0.1787 0.0000
vt 0.5981 0.0015 0.0000
vt 0.6498 0.0000 0.0000
vt 0.6915 0.0013 0.0000
vt 0.7294 0.0059 0.0000
vt 0.7701 0.0138 0.0000
vt 0.8132 0.0245 0.0000
vt 0.8582 0.0373 0.0000
vt 0.9047 0.0518 0.0000
vt 1.0000 0.0834 0.0000
vt 0.9521 0.0673 0.0000
vt 0.9104 1.0000 1.0000
vt 0.0547 1.0000 0.9934
vt 0.0547 0.0000 0.9934
vt 0.9104 0.0000 1.0000
vt 0.3679 1.0000 0.2189
vt 0.0000 1.0000 0.0896
vt 0.0000 0.0000 0.0896
vt 0.3679 0.0000 0.2189
vt 0.9934 1.0000 0.9453
vt 0.1524 1.0000 1.0000
vt 0.1524 0.0000 1.0000
vt 0.9934 0.0000 0.9453
vt 0.6571 1.0000 0.1990
vt 0.6571 0.0000 0.1990
vt 0.0341 1.0000 0.7512
vt 0.0341 0.0000 0.7512
vt 0.7512 1.0000 0.0341
vt 0.6748 1.0000 0.0258
vt 0.6748 0.0000 0.0258
vt 0.7512 0.0000 0.0341
vt 0.5999 1.0000 0.0179
vt 0.5999 0.0000 0.0179
vt 0.5284 1.0000 0.0109
vt 0.5284 0.0000 0.0109
vt 0.4618 1.0000 0.0052
vt 0.4618 0.0000 0.0052
vt 0.8213 1.0000 0.0448
vt 0.8213 0.0000 0.0448
vt 0.4019 1.0000 0.0015
vt 0.4019 0.0000 0.0015
vt 0.3502 1.0000 0.0000
vt 0.3502 0.0000 0.0000
vt 0.3085 1.0000 0.0013
vt 0.3085 0.0000 0.0013
vt 0.2706 1.0000 0.0059
vt 0.2706 0.0000 0.0059
vt 0.2299 1.0000 0.0138
vt 0.2299 0.0000 0.0138
vt 0.1868 1.0000 0.0245
vt 0.1868 0.0000 0.0245
vt 0.1418 1.0000 0.0373
vt 0.1418 0.0000 0.0373
vt 0.0953 1.0000 0.0518
vt 0.0953 0.0000 0.0518
vt 0.9166 1.0000 0.0000
vt 0.9166 0.0000 0.0000
vt 0.0479 1.0000 0.0673
vt 0.0000 1.0000 0.0834
vt 0.0000 0.0000 0.0834
vt 0.0479 0.0000 0.0673
# 92 texture coords

o Line001
g Line001
usemtl 02___Default
s 1
f 149/219/94 150/220/95 151/221/96 152/222/97 
f 152/222/97 151/221/96 153/223/98 154/224/99 
f 155/225/100 154/224/99 153/223/98 156/226/101 
f 157/227/102 156/226/101 153/223/98 158/228/103 
f 158/228/103 153/223/98 159/229/104 160/230/105 
f 161/231/106 160/230/105 159/229/104 162/232/107 
f 163/233/108 162/232/107 159/229/104 164/234/109 
f 165/235/110 164/234/109 159/229/104 166/236/111 
f 167/237/112 166/236/111 159/229/104 168/238/113 
f 167/237/112 168/238/113 169/239/114 
f 170/240/115 171/241/116 172/242/117 173/243/118 
f 174/244/119 170/240/115 173/243/118 175/245/120 
f 174/244/119 175/245/120 176/246/121 177/247/122 
f 174/244/119 177/247/122 178/248/123 179/249/124 
f 180/250/125 174/244/119 179/249/124 181/251/126 
f 180/250/125 181/251/126 182/252/127 183/253/128 
f 180/250/125 183/253/128 184/254/129 185/255/130 
f 180/250/125 185/255/130 186/256/131 187/257/132 
f 180/250/125 187/257/132 188/258/133 189/259/134 
f 190/260/135 189/259/134 188/258/133 
s 2
f 150/261/95 149/262/94 172/263/117 171/264/116 
s 4
f 151/265/96 150/266/95 171/267/116 170/268/115 
f 149/269/94 152/270/97 173/271/118 172/272/117 
f 153/273/98 151/265/96 170/268/115 174/274/119 
s 2
f 152/270/97 154/275/99 175/276/120 173/271/118 
f 154/277/99 155/278/100 176/279/121 175/280/120 
f 155/278/100 156/281/101 177/282/122 176/279/121 
f 156/281/101 157/283/102 178/284/123 177/282/122 
f 157/283/102 158/285/103 179/286/124 178/284/123 
s 4
f 159/287/104 153/273/98 174/274/119 180/288/125 
s 2
f 158/285/103 160/289/105 181/290/126 179/286/124 
f 160/289/105 161/291/106 182/292/127 181/290/126 
f 161/291/106 162/293/107 183/294/128 182/292/127 
f 162/293/107 163/295/108 184/296/129 183/294/128 
f 163/295/108 164/297/109 185/298/130 184/296/129 
f 164/297/109 165/299/110 186/300/131 185/298/130 
f 165/299/110 166/301/111 187/302/132 186/300/131 
f 166/301/111 167/303/112 188/304/133 187/302/132 
s 4
f 168/305/113 159/287/104 180/288/125 189/306/134 
s 2
f 169/307/114 168/308/113 189/309/134 190/310/135 
f 167/303/112 169/307/114 190/310/135 188/304/133 
# 39 polygons - 2 triangles

