# 3ds Max Wavefront OBJ Exporter v0.97b - (c)2007 guruware
# File Created: 21.02.2022 04:41:33

mtllib body_lower.mtl

#
# object Box001
#

v  -12.8656 36.4388 2.4434
v  -12.8656 36.4388 -1.3443
v  -4.1119 33.6749 -1.3443
v  -4.1119 33.1165 4.7413
v  4.6418 33.6749 -1.3443
v  4.6418 33.1165 4.7413
v  13.3955 36.4388 -1.3443
v  13.3955 36.4388 2.4434
v  -12.8656 36.4388 -5.1320
v  -4.1119 33.6749 -5.1320
v  4.6418 33.6749 -5.1320
v  13.3955 36.4388 -5.1320
v  -12.8656 36.4811 -9.1849
v  -4.1119 33.8113 -8.5630
v  4.6418 33.8113 -8.5630
v  13.3955 36.4811 -9.1849
v  -4.1119 40.2051 4.7413
v  -12.8656 40.7635 2.4434
v  4.6418 40.2051 4.7413
v  13.3955 40.7635 2.4434
v  -4.1119 44.5297 4.7413
v  -12.8656 45.0881 2.4434
v  4.6418 44.5297 4.7413
v  13.3955 45.0881 2.4434
v  -4.1119 50.1943 2.4434
v  -12.8656 49.4127 2.4434
v  4.6418 50.1943 2.4434
v  13.3955 49.4127 2.4434
v  13.3955 40.7635 -1.3443
v  13.3955 40.7635 -5.1320
v  13.3955 40.6584 -10.1580
v  13.3955 45.0881 -1.3443
v  13.3955 45.0881 -5.1320
v  13.3955 45.0881 -8.9197
v  13.3955 49.4127 -1.3443
v  13.3955 49.4127 -5.1320
v  13.3955 49.4127 -8.9197
v  4.6418 40.6584 -10.1580
v  -4.1119 40.6584 -10.1580
v  -12.8656 40.6584 -10.1580
v  4.6418 45.0881 -8.9197
v  -4.1119 45.0881 -8.9197
v  -12.8656 45.0881 -8.9197
v  4.6418 50.1943 -8.9197
v  -4.1119 50.1943 -8.9197
v  -12.8656 49.4127 -8.9197
v  -12.8656 40.7635 -5.1320
v  -12.8656 40.7635 -1.3443
v  -12.8656 45.0881 -5.1320
v  -12.8656 45.0881 -1.3443
v  -12.8656 49.4127 -5.1320
v  -12.8656 49.4127 -1.3443
# 52 vertices

vn -0.7616 -0.4629 0.4535
vn -0.8066 -0.5911 -0.0000
vn -0.1527 -0.9878 -0.0295
vn -0.2259 -0.7061 0.6711
vn 0.1527 -0.9878 -0.0295
vn 0.2259 -0.7061 0.6711
vn 0.8066 -0.5911 -0.0000
vn 0.7616 -0.4629 0.4535
vn -0.8060 -0.5920 -0.0020
vn -0.1521 -0.9883 -0.0127
vn 0.1521 -0.9883 -0.0127
vn 0.8060 -0.5920 -0.0020
vn -0.6552 -0.5685 -0.4975
vn -0.0976 -0.8293 -0.5503
vn 0.0976 -0.8293 -0.5503
vn 0.6552 -0.5685 -0.4975
vn -0.1909 0.0000 0.9816
vn -0.8291 0.0000 0.5591
vn 0.1909 0.0000 0.9816
vn 0.8291 0.0000 0.5591
vn -0.1734 0.2600 0.9499
vn 0.1734 0.2600 0.9499
vn -0.0231 0.5298 0.8478
vn -0.6874 0.0000 0.7263
vn 0.0231 0.5298 0.8478
vn 0.6874 0.0000 0.7263
vn 1.0000 0.0000 -0.0000
vn 0.6332 0.0240 -0.7736
vn 0.7555 0.1322 -0.6416
vn 0.6874 0.0000 -0.7263
vn 0.0000 0.0310 -0.9995
vn -0.6332 0.0240 -0.7736
vn 0.0000 0.2019 -0.9794
vn -0.7555 0.1322 -0.6416
vn 0.0000 0.0000 -1.0000
vn -0.6874 0.0000 -0.7263
vn -1.0000 0.0000 -0.0000
# 37 vertex normals

vt 0.5000 0.0771 0.0973
vt 0.5000 0.2042 0.0973
vt 0.3333 0.2042 0.0163
vt 0.3333 0.0000 0.0000
vt 0.1667 0.2042 0.0163
vt 0.1667 0.0000 0.0000
vt 0.0000 0.2042 0.0973
vt 0.0000 0.0771 0.0973
vt 0.5000 0.3313 0.0973
vt 0.3333 0.3313 0.0163
vt 0.1667 0.3313 0.0163
vt 0.0000 0.3313 0.0973
vt 0.5000 0.4673 0.0985
vt 0.3333 0.4465 0.0203
vt 0.1667 0.4465 0.0203
vt 0.0000 0.4673 0.0985
vt 0.0000 0.0973 0.0771
vt 0.1667 0.2075 0.0000
vt 0.0000 0.2239 0.0771
vt 0.3333 0.2075 0.0000
vt 0.5000 0.0973 0.0771
vt 0.5000 0.2239 0.0771
vt 0.1667 0.3342 0.0000
vt 0.0000 0.3505 0.0771
vt 0.3333 0.3342 0.0000
vt 0.5000 0.3505 0.0771
vt 0.1667 0.5000 0.0771
vt 0.0000 0.4771 0.0771
vt 0.3333 0.5000 0.0771
vt 0.5000 0.4771 0.0771
vt 0.0771 0.0973 0.5000
vt 0.2042 0.0973 0.5000
vt 0.2042 0.2239 0.5000
vt 0.0771 0.2239 0.5000
vt 0.3313 0.0973 0.5000
vt 0.3313 0.2239 0.5000
vt 0.4673 0.0985 0.5000
vt 0.5000 0.2208 0.5000
vt 0.2042 0.3505 0.5000
vt 0.0771 0.3505 0.5000
vt 0.3313 0.3505 0.5000
vt 0.4584 0.3505 0.5000
vt 0.2042 0.4771 0.5000
vt 0.0771 0.4771 0.5000
vt 0.3313 0.4771 0.5000
vt 0.4584 0.4771 0.5000
vt 0.0000 0.0985 0.4673
vt 0.1667 0.0203 0.4465
vt 0.1667 0.2208 0.5000
vt 0.0000 0.2208 0.5000
vt 0.3333 0.0203 0.4465
vt 0.3333 0.2208 0.5000
vt 0.5000 0.0985 0.4673
vt 0.1667 0.3505 0.4584
vt 0.0000 0.3505 0.4584
vt 0.3333 0.3505 0.4584
vt 0.5000 0.3505 0.4584
vt 0.1667 0.5000 0.4584
vt 0.0000 0.4771 0.4584
vt 0.3333 0.5000 0.4584
vt 0.5000 0.4771 0.4584
vt 0.0327 0.0985 0.0000
vt 0.1687 0.0973 0.0000
vt 0.1687 0.2239 0.0000
vt 0.0000 0.2208 0.0000
vt 0.2958 0.0973 0.0000
vt 0.2958 0.2239 0.0000
vt 0.4229 0.0973 0.0000
vt 0.4229 0.2239 0.0000
vt 0.1687 0.3505 0.0000
vt 0.0416 0.3505 0.0000
vt 0.2958 0.3505 0.0000
vt 0.4229 0.3505 0.0000
vt 0.1687 0.4771 0.0000
vt 0.0416 0.4771 0.0000
vt 0.2958 0.4771 0.0000
vt 0.4229 0.4771 0.0000
# 77 texture coords

o Box001
g Box001
usemtl 03___Default
s 2
f 1/1/1 2/2/2 3/3/3 4/4/4 
f 4/4/4 3/3/3 5/5/5 6/6/6 
f 6/6/6 5/5/5 7/7/7 8/8/8 
f 2/2/2 9/9/9 10/10/10 3/3/3 
f 3/3/3 10/10/10 11/11/11 5/5/5 
f 5/5/5 11/11/11 12/12/12 7/7/7 
f 9/9/9 13/13/13 14/14/14 10/10/10 
f 10/10/10 14/14/14 15/15/15 11/11/11 
f 11/11/11 15/15/15 16/16/16 12/12/12 
s 8
f 1/17/1 4/6/4 17/18/17 18/19/18 
f 4/6/4 6/4/6 19/20/19 17/18/17 
f 6/4/6 8/21/8 20/22/20 19/20/19 
f 18/19/18 17/18/17 21/23/21 22/24/18 
f 17/18/17 19/20/19 23/25/22 21/23/21 
f 19/20/19 20/22/20 24/26/20 23/25/22 
f 22/24/18 21/23/21 25/27/23 26/28/24 
f 21/23/21 23/25/22 27/29/25 25/27/23 
f 23/25/22 24/26/20 28/30/26 27/29/25 
s 16
f 8/31/8 7/32/7 29/33/27 20/34/20 
f 7/32/7 12/35/12 30/36/27 29/33/27 
f 12/35/12 16/37/16 31/38/28 30/36/27 
f 20/34/20 29/33/27 32/39/27 24/40/20 
f 29/33/27 30/36/27 33/41/27 32/39/27 
f 30/36/27 31/38/28 34/42/29 33/41/27 
f 24/40/20 32/39/27 35/43/27 28/44/26 
f 32/39/27 33/41/27 36/45/27 35/43/27 
f 33/41/27 34/42/29 37/46/30 36/45/27 
s 32
f 16/47/16 15/48/15 38/49/31 31/50/28 
f 15/48/15 14/51/14 39/52/31 38/49/31 
f 14/51/14 13/53/13 40/38/32 39/52/31 
f 31/50/28 38/49/31 41/54/33 34/55/29 
f 38/49/31 39/52/31 42/56/33 41/54/33 
f 39/52/31 40/38/32 43/57/34 42/56/33 
f 34/55/29 41/54/33 44/58/35 37/59/30 
f 41/54/33 42/56/33 45/60/35 44/58/35 
f 42/56/33 43/57/34 46/61/36 45/60/35 
s 64
f 13/62/13 9/63/9 47/64/37 40/65/32 
f 9/63/9 2/66/2 48/67/37 47/64/37 
f 2/66/2 1/68/1 18/69/18 48/67/37 
f 40/65/32 47/64/37 49/70/37 43/71/34 
f 47/64/37 48/67/37 50/72/37 49/70/37 
f 48/67/37 18/69/18 22/73/18 50/72/37 
f 43/71/34 49/70/37 51/74/37 46/75/36 
f 49/70/37 50/72/37 52/76/37 51/74/37 
f 50/72/37 22/73/18 26/77/24 52/76/37 
# 45 polygons

#
# object Box002
#

v  -11.6085 16.2411 -7.4038
v  -11.6085 26.5981 -7.4575
v  -7.7840 26.5981 -7.4575
v  -7.7840 16.2411 -7.4038
v  -3.9595 26.5981 -7.4575
v  -3.9595 16.2411 -7.4038
v  -11.6085 36.9550 -7.4038
v  -7.7840 36.9550 -7.4038
v  -3.9595 36.9550 -7.4038
v  -11.6085 16.2411 1.7583
v  -7.7840 16.2411 1.7583
v  -7.7840 26.5981 3.2640
v  -11.6085 26.5981 3.2640
v  -3.9595 16.2411 1.7583
v  -3.9595 26.5981 3.2640
v  -7.7840 36.9550 1.7583
v  -11.6085 36.9550 1.7583
v  -3.9595 36.9550 1.7583
v  -3.0566 26.5981 -2.8764
v  -3.9595 16.2411 -2.8227
v  -3.9595 36.9550 -2.8227
v  -12.6270 26.5981 -2.8764
v  -11.6085 36.9550 -2.8227
v  -11.6085 16.2411 -2.8227
# 24 vertices

vn -0.7087 -0.0047 -0.7055
vn -0.6351 0.0000 -0.7724
vn 0.0000 0.0000 -1.0000
vn 0.0000 -0.0067 -1.0000
vn 0.6433 -0.0000 -0.7656
vn 0.7087 -0.0047 -0.7055
vn -0.7087 0.0047 -0.7055
vn 0.0000 0.0067 -1.0000
vn 0.7087 0.0047 -0.7055
vn -0.7456 -0.1235 0.6548
vn 0.0000 -0.1854 0.9827
vn 0.0000 -0.0000 1.0000
vn -0.6188 -0.0000 0.7855
vn 0.7456 -0.1235 0.6548
vn 0.6245 -0.0000 0.7811
vn 0.0000 0.1854 0.9827
vn -0.7456 0.1235 0.6548
vn 0.7456 0.1235 0.6548
vn 0.9998 0.0000 -0.0217
vn 0.9952 -0.0979 -0.0000
vn 0.9952 0.0979 0.0000
vn -0.9997 0.0000 -0.0243
vn -0.9939 0.1103 0.0000
vn -0.9939 -0.1103 -0.0000
# 24 vertex normals

vt 0.4468 0.0000 0.1142
vt 0.4468 0.2500 0.1128
vt 0.2470 0.2500 0.1128
vt 0.2470 0.0000 0.1142
vt 0.0472 0.2500 0.1128
vt 0.0472 -0.0000 0.1142
vt 0.4468 0.5000 0.1142
vt 0.2470 0.5000 0.1142
vt 0.0472 0.5000 0.1142
vt 0.0532 0.0000 0.3487
vt 0.2530 0.0000 0.3487
vt 0.2530 0.2500 0.3872
vt 0.0532 0.2500 0.3872
vt 0.4528 -0.0000 0.3487
vt 0.4528 0.2500 0.3872
vt 0.2530 0.5000 0.3487
vt 0.0532 0.5000 0.3487
vt 0.4528 0.5000 0.3487
vt -0.0000 0.1142 0.4528
vt 0.2500 0.1128 0.4528
vt 0.2500 0.2300 0.5000
vt -0.0000 0.2314 0.4528
vt 0.5000 0.1142 0.4528
vt 0.5000 0.2314 0.4528
vt 0.2500 0.3872 0.4528
vt -0.0000 0.3487 0.4528
vt 0.5000 0.3487 0.4528
vt 0.0000 0.1142 0.0532
vt 0.2500 0.1128 0.0532
vt 0.2500 0.2300 0.0000
vt 0.0000 0.2314 0.0532
vt 0.5000 0.1142 0.0532
vt 0.5000 0.2314 0.0532
vt 0.2500 0.3872 0.0532
vt 0.0000 0.3487 0.0532
vt 0.5000 0.3487 0.0532
# 36 texture coords

o Box002
g Box002
usemtl 03___Default
s 2
f 53/78/38 54/79/39 55/80/40 56/81/41 
f 56/81/41 55/80/40 57/82/42 58/83/43 
f 54/79/39 59/84/44 60/85/45 55/80/40 
f 55/80/40 60/85/45 61/86/46 57/82/42 
s 4
f 62/87/47 63/88/48 64/89/49 65/90/50 
f 63/88/48 66/91/51 67/92/52 64/89/49 
f 65/90/50 64/89/49 68/93/53 69/94/54 
f 64/89/49 67/92/52 70/95/55 68/93/53 
s 16
f 58/96/43 57/97/42 71/98/56 72/99/57 
f 57/97/42 61/100/46 73/101/58 71/98/56 
f 72/99/57 71/98/56 67/102/52 66/103/51 
f 71/98/56 73/101/58 70/104/55 67/102/52 
s 64
f 59/105/44 54/106/39 74/107/59 75/108/60 
f 54/106/39 53/109/38 76/110/61 74/107/59 
f 75/108/60 74/107/59 65/111/50 69/112/54 
f 74/107/59 76/110/61 62/113/47 65/111/50 
# 16 polygons

#
# object Box004
#

v  -12.6737 -0.9819 3.2866
v  -11.4927 -0.9819 -9.4466
v  -4.0894 -0.9819 -9.4466
v  -2.9084 -0.9819 3.2866
v  -10.2535 5.6500 3.2866
v  -5.0266 5.6500 3.2866
v  -2.9084 2.9304 3.2866
v  -2.9084 8.9329 3.2866
v  -12.6737 8.9329 3.2866
v  -12.6737 2.8029 3.2866
v  -4.6690 8.9329 -8.2985
v  -10.9131 8.9329 -8.2985
v  -10.1954 -0.2603 10.0554
v  -11.1520 -0.9077 10.0554
v  -11.1520 -0.9907 10.0554
v  -4.2477 -0.9907 10.0554
v  -4.2477 -0.8638 10.0554
v  -5.0898 -0.2603 10.0554
v  -3.3527 -0.9756 7.8146
v  -12.2294 -0.9756 7.8146
v  -3.3527 -0.5067 7.8146
v  -5.0898 1.7236 7.8146
v  -10.1954 1.7236 7.8146
v  -12.2294 -0.6691 7.8146
v  -2.9084 14.7088 2.7150
v  -12.6737 14.7088 2.7149
v  -2.9084 14.7088 -7.7269
v  -12.6737 14.7088 -7.7269
v  -2.9084 23.3050 1.6497
v  -12.6737 23.3050 1.6497
v  -2.9084 23.3050 -6.6617
v  -12.6737 23.3050 -6.6617
# 32 vertices

vn -0.7411 -0.6714 0.0036
vn -0.5808 -0.4480 -0.6797
vn 0.5808 -0.4480 -0.6797
vn 0.7411 -0.6714 0.0036
vn -0.1068 0.8288 -0.5493
vn 0.1162 0.8291 -0.5469
vn 0.8994 0.3537 0.2568
vn 0.7659 0.0790 0.6381
vn -0.7659 0.0790 0.6381
vn -0.8971 0.3558 0.2621
vn 0.4377 0.1293 -0.8898
vn -0.4377 0.1293 -0.8898
vn -0.0458 0.5930 0.8039
vn -0.3752 0.5316 0.7594
vn -0.3269 -0.6250 0.7089
vn 0.3609 -0.6180 0.6984
vn 0.4095 0.5188 0.7505
vn 0.0486 0.5939 0.8031
vn 0.6931 -0.6604 0.2890
vn -0.6860 -0.6519 0.3231
vn 0.7694 0.4944 0.4044
vn 0.1320 0.9344 0.3309
vn -0.1215 0.9357 0.3311
vn -0.7558 0.4903 0.4340
vn 0.7007 0.1903 0.6876
vn -0.7006 0.1904 0.6876
vn 0.7114 -0.2358 -0.6620
vn -0.7115 -0.2359 -0.6619
vn 0.7656 0.1894 0.6148
vn -0.7657 0.1894 0.6147
vn 0.7657 0.1894 -0.6147
vn -0.7656 0.1894 -0.6148
# 32 vertex normals

vt 0.5000 0.1735 0.0002
vt 0.4395 0.5000 0.0002
vt 0.0605 0.5000 0.0002
vt 0.0000 0.1735 0.0002
vt 0.1239 0.1367 0.1735
vt 0.3915 0.1367 0.1735
vt 0.5000 0.0807 0.1735
vt 0.5000 0.2042 0.1735
vt 0.0000 0.2042 0.1735
vt 0.0000 0.0781 0.1735
vt 0.1735 0.0002 0.5000
vt 0.5000 0.0002 0.4395
vt 0.4706 0.2042 0.4099
vt 0.1735 0.2042 0.5000
vt 0.1735 0.0807 0.5000
vt 0.0605 0.0002 0.5000
vt 0.4395 0.0002 0.5000
vt 0.4099 0.2042 0.4706
vt 0.0901 0.2042 0.4706
vt 0.0000 0.0002 0.0605
vt 0.3265 0.0002 0.0000
vt 0.3265 0.0781 0.0000
vt 0.3265 0.2042 0.0000
vt 0.0294 0.2042 0.0901
vt 0.1269 0.0150 0.0000
vt 0.0779 0.0017 0.0000
vt 0.0779 0.0000 0.0000
vt 0.4314 0.0000 0.0000
vt 0.4314 0.0026 0.0000
vt 0.3883 0.0150 0.0000
vt 0.0227 0.0574 0.0003
vt 0.4773 0.0574 0.0003
vt 0.0574 0.0100 0.4773
vt 0.0574 0.0003 0.4773
vt 0.5000 0.1735 0.0807
vt 0.3915 0.1735 0.1367
vt 0.3883 0.0574 0.0559
vt 0.4773 0.0574 0.0100
vt 0.1239 0.1735 0.1367
vt 0.1269 0.0574 0.0559
vt 0.0000 0.1735 0.0781
vt 0.0227 0.0574 0.0066
vt 0.4426 0.0003 0.0227
vt 0.4426 0.0066 0.0227
vt 0.0686 0.0000 0.0000
vt 0.4221 0.0000 0.0000
vt 0.0000 0.0026 0.4314
vt 0.0000 0.0000 0.4314
vt 0.3883 0.0000 0.0150
vt 0.4314 0.0000 0.0026
vt 0.1269 0.0000 0.0150
vt 0.0779 0.0000 0.0017
vt 0.5000 0.0000 0.0779
vt 0.5000 0.0017 0.0779
vt 0.5000 0.3231 0.1882
vt 0.0000 0.3231 0.1882
vt 0.0000 0.1735 0.2042
vt 0.0901 0.4706 0.2042
vt 0.0000 0.4559 0.3231
vt 0.0000 0.1882 0.3231
vt 0.5000 0.3231 0.4559
vt 0.0000 0.3231 0.4559
vt 0.4099 0.4706 0.2042
vt 0.5000 0.1735 0.2042
vt 0.5000 0.1882 0.3231
vt 0.5000 0.4559 0.3231
vt 0.5000 0.5000 0.2155
vt 0.0000 0.5000 0.2155
vt 0.1882 0.3231 0.5000
vt 0.4559 0.3231 0.5000
vt 0.4286 0.5000 0.5000
vt 0.2155 0.5000 0.5000
vt 0.5000 0.5000 0.4286
vt 0.0000 0.5000 0.4286
vt 0.0441 0.3231 0.0000
vt 0.3118 0.3231 0.0000
vt 0.2845 0.5000 0.0000
vt 0.0714 0.5000 0.0000
# 78 texture coords

o Box004
g Box004
usemtl 07___Default
s 2
f 77/114/62 78/115/63 79/116/64 80/117/65 
s 8
f 81/118/66 82/119/67 83/120/68 84/121/69 85/122/70 86/123/71 
s 16
f 80/124/65 79/125/64 87/126/72 84/127/69 83/128/68 
s 32
f 79/129/64 78/130/63 88/131/73 87/132/72 
s 64
f 78/133/63 77/134/62 86/135/71 85/136/70 88/137/73 
s 8
f 89/138/74 90/139/75 91/140/76 92/141/77 93/142/78 94/143/79 
s off
f 77/114/62 80/117/65 95/144/80 96/145/81 
f 80/124/65 83/128/68 97/146/82 95/147/80 
f 83/148/68 82/149/67 98/150/83 97/151/82 
f 82/149/67 81/152/66 99/153/84 98/150/83 
f 81/152/66 86/154/71 100/155/85 99/153/84 
f 86/135/71 77/134/62 96/156/81 100/157/85 
f 96/145/81 95/144/80 92/158/77 91/159/76 
f 95/147/80 97/146/82 93/160/78 92/161/77 
f 97/151/82 98/150/83 94/162/79 93/163/78 
f 98/150/83 99/153/84 89/164/74 94/162/79 
f 99/153/84 100/155/85 90/165/75 89/164/74 
f 100/157/85 96/156/81 91/166/76 90/167/75 
f 85/122/70 84/121/69 101/168/86 102/169/87 
f 84/170/69 87/171/72 103/172/88 101/173/86 
f 87/132/72 88/131/73 104/174/89 103/175/88 
f 88/176/73 85/177/70 102/178/87 104/179/89 
f 102/169/87 101/168/86 105/180/90 106/181/91 
f 101/182/86 103/183/88 107/184/92 105/185/90 
f 103/175/88 104/174/89 108/186/93 107/187/92 
f 104/188/89 102/189/87 106/190/91 108/191/93 
# 26 polygons

#
# object Box005
#

v  3.2309 -0.9819 3.2866
v  4.4119 -0.9819 -9.4466
v  11.8152 -0.9819 -9.4466
v  12.9962 -0.9819 3.2866
v  5.6512 5.6500 3.2866
v  10.8780 5.6500 3.2866
v  12.9962 2.9304 3.2866
v  12.9962 8.9329 3.2866
v  3.2309 8.9329 3.2866
v  3.2309 2.8029 3.2866
v  11.2356 8.9329 -8.2985
v  4.9915 8.9329 -8.2985
v  5.7092 -0.2603 10.0554
v  4.7526 -0.9077 10.0554
v  4.7526 -0.9907 10.0554
v  11.6569 -0.9907 10.0554
v  11.6569 -0.8638 10.0554
v  10.8148 -0.2603 10.0554
v  12.5519 -0.9756 7.8146
v  3.6752 -0.9756 7.8146
v  12.5519 -0.5067 7.8146
v  10.8148 1.7236 7.8146
v  5.7092 1.7236 7.8146
v  3.6752 -0.6691 7.8146
v  12.9962 14.7088 2.7150
v  3.2309 14.7088 2.7149
v  12.9962 14.7088 -7.7269
v  3.2309 14.7088 -7.7269
v  12.9962 23.3050 1.6497
v  3.2309 23.3050 1.6497
v  12.9962 23.3050 -6.6617
v  3.2309 23.3050 -6.6617
# 32 vertices

vn -0.7411 -0.6714 0.0036
vn -0.5808 -0.4480 -0.6797
vn 0.5808 -0.4480 -0.6797
vn 0.7411 -0.6714 0.0036
vn -0.1068 0.8288 -0.5493
vn 0.1162 0.8291 -0.5469
vn 0.8994 0.3537 0.2568
vn 0.7659 0.0790 0.6381
vn -0.7659 0.0790 0.6381
vn -0.8971 0.3558 0.2621
vn 0.4377 0.1293 -0.8898
vn -0.4377 0.1293 -0.8898
vn -0.0458 0.5930 0.8039
vn -0.3752 0.5316 0.7594
vn -0.3269 -0.6250 0.7089
vn 0.3609 -0.6180 0.6984
vn 0.4095 0.5188 0.7505
vn 0.0486 0.5939 0.8031
vn 0.6931 -0.6604 0.2890
vn -0.6860 -0.6519 0.3231
vn 0.7694 0.4944 0.4044
vn 0.1320 0.9344 0.3309
vn -0.1215 0.9357 0.3311
vn -0.7558 0.4903 0.4340
vn 0.7007 0.1903 0.6876
vn -0.7006 0.1904 0.6876
vn 0.7114 -0.2358 -0.6620
vn -0.7115 -0.2359 -0.6619
vn 0.7656 0.1894 0.6148
vn -0.7657 0.1894 0.6147
vn 0.7657 0.1894 -0.6147
vn -0.7656 0.1894 -0.6148
# 32 vertex normals

vt 0.5000 0.1735 0.0002
vt 0.4395 0.5000 0.0002
vt 0.0605 0.5000 0.0002
vt 0.0000 0.1735 0.0002
vt 0.1239 0.1367 0.1735
vt 0.3915 0.1367 0.1735
vt 0.5000 0.0807 0.1735
vt 0.5000 0.2042 0.1735
vt 0.0000 0.2042 0.1735
vt 0.0000 0.0781 0.1735
vt 0.1735 0.0002 0.5000
vt 0.5000 0.0002 0.4395
vt 0.4706 0.2042 0.4099
vt 0.1735 0.2042 0.5000
vt 0.1735 0.0807 0.5000
vt 0.0605 0.0002 0.5000
vt 0.4395 0.0002 0.5000
vt 0.4099 0.2042 0.4706
vt 0.0901 0.2042 0.4706
vt 0.0000 0.0002 0.0605
vt 0.3265 0.0002 0.0000
vt 0.3265 0.0781 0.0000
vt 0.3265 0.2042 0.0000
vt 0.0294 0.2042 0.0901
vt 0.1269 0.0150 0.0000
vt 0.0779 0.0017 0.0000
vt 0.0779 0.0000 0.0000
vt 0.4314 0.0000 0.0000
vt 0.4314 0.0026 0.0000
vt 0.3883 0.0150 0.0000
vt 0.0227 0.0574 0.0003
vt 0.4773 0.0574 0.0003
vt 0.0574 0.0100 0.4773
vt 0.0574 0.0003 0.4773
vt 0.5000 0.1735 0.0807
vt 0.3915 0.1735 0.1367
vt 0.3883 0.0574 0.0559
vt 0.4773 0.0574 0.0100
vt 0.1239 0.1735 0.1367
vt 0.1269 0.0574 0.0559
vt 0.0000 0.1735 0.0781
vt 0.0227 0.0574 0.0066
vt 0.4426 0.0003 0.0227
vt 0.4426 0.0066 0.0227
vt 0.0686 0.0000 0.0000
vt 0.4221 0.0000 0.0000
vt 0.0000 0.0026 0.4314
vt 0.0000 0.0000 0.4314
vt 0.3883 0.0000 0.0150
vt 0.4314 0.0000 0.0026
vt 0.1269 0.0000 0.0150
vt 0.0779 0.0000 0.0017
vt 0.5000 0.0000 0.0779
vt 0.5000 0.0017 0.0779
vt 0.5000 0.3231 0.1882
vt 0.0000 0.3231 0.1882
vt 0.0000 0.1735 0.2042
vt 0.0901 0.4706 0.2042
vt 0.0000 0.4559 0.3231
vt 0.0000 0.1882 0.3231
vt 0.5000 0.3231 0.4559
vt 0.0000 0.3231 0.4559
vt 0.4099 0.4706 0.2042
vt 0.5000 0.1735 0.2042
vt 0.5000 0.1882 0.3231
vt 0.5000 0.4559 0.3231
vt 0.5000 0.5000 0.2155
vt 0.0000 0.5000 0.2155
vt 0.1882 0.3231 0.5000
vt 0.4559 0.3231 0.5000
vt 0.4286 0.5000 0.5000
vt 0.2155 0.5000 0.5000
vt 0.5000 0.5000 0.4286
vt 0.0000 0.5000 0.4286
vt 0.0441 0.3231 0.0000
vt 0.3118 0.3231 0.0000
vt 0.2845 0.5000 0.0000
vt 0.0714 0.5000 0.0000
# 78 texture coords

o Box005
g Box005
usemtl 07___Default
s 2
f 109/192/94 110/193/95 111/194/96 112/195/97 
s 8
f 113/196/98 114/197/99 115/198/100 116/199/101 117/200/102 118/201/103 
s 16
f 112/202/97 111/203/96 119/204/104 116/205/101 115/206/100 
s 32
f 111/207/96 110/208/95 120/209/105 119/210/104 
s 64
f 110/211/95 109/212/94 118/213/103 117/214/102 120/215/105 
s 8
f 121/216/106 122/217/107 123/218/108 124/219/109 125/220/110 126/221/111 
s off
f 109/192/94 112/195/97 127/222/112 128/223/113 
f 112/202/97 115/206/100 129/224/114 127/225/112 
f 115/226/100 114/227/99 130/228/115 129/229/114 
f 114/227/99 113/230/98 131/231/116 130/228/115 
f 113/230/98 118/232/103 132/233/117 131/231/116 
f 118/213/103 109/212/94 128/234/113 132/235/117 
f 128/223/113 127/222/112 124/236/109 123/237/108 
f 127/225/112 129/224/114 125/238/110 124/239/109 
f 129/229/114 130/228/115 126/240/111 125/241/110 
f 130/228/115 131/231/116 121/242/106 126/240/111 
f 131/231/116 132/233/117 122/243/107 121/242/106 
f 132/235/117 128/234/113 123/244/108 122/245/107 
f 117/200/102 116/199/101 133/246/118 134/247/119 
f 116/248/101 119/249/104 135/250/120 133/251/118 
f 119/210/104 120/209/105 136/252/121 135/253/120 
f 120/254/105 117/255/102 134/256/119 136/257/121 
f 134/247/119 133/246/118 137/258/122 138/259/123 
f 133/260/118 135/261/120 139/262/124 137/263/122 
f 135/253/120 136/252/121 140/264/125 139/265/124 
f 136/266/121 134/267/119 138/268/123 140/269/125 
# 26 polygons

#
# object Box006
#

v  4.3789 16.2411 -7.4038
v  4.3789 26.5981 -7.4575
v  8.2034 26.5981 -7.4575
v  8.2034 16.2411 -7.4038
v  12.0279 26.5981 -7.4575
v  12.0279 16.2411 -7.4038
v  4.3789 36.9550 -7.4038
v  8.2034 36.9550 -7.4038
v  12.0279 36.9550 -7.4038
v  4.3789 16.2411 1.7583
v  8.2034 16.2411 1.7583
v  8.2034 26.5981 3.2640
v  4.3789 26.5981 3.2640
v  12.0279 16.2411 1.7583
v  12.0279 26.5981 3.2640
v  8.2034 36.9550 1.7583
v  4.3789 36.9550 1.7583
v  12.0279 36.9550 1.7583
v  12.9308 26.5981 -2.8764
v  12.0279 16.2411 -2.8227
v  12.0279 36.9550 -2.8227
v  3.3604 26.5981 -2.8764
v  4.3789 36.9550 -2.8227
v  4.3789 16.2411 -2.8227
# 24 vertices

vn -0.7087 -0.0047 -0.7055
vn -0.6351 0.0000 -0.7724
vn 0.0000 0.0000 -1.0000
vn 0.0000 -0.0067 -1.0000
vn 0.6433 -0.0000 -0.7656
vn 0.7087 -0.0047 -0.7055
vn -0.7087 0.0047 -0.7055
vn 0.0000 0.0067 -1.0000
vn 0.7087 0.0047 -0.7055
vn -0.7456 -0.1235 0.6548
vn 0.0000 -0.1854 0.9827
vn 0.0000 -0.0000 1.0000
vn -0.6188 -0.0000 0.7855
vn 0.7456 -0.1235 0.6548
vn 0.6245 -0.0000 0.7811
vn 0.0000 0.1854 0.9827
vn -0.7456 0.1235 0.6548
vn 0.7456 0.1235 0.6548
vn 0.9998 0.0000 -0.0217
vn 0.9952 -0.0979 -0.0000
vn 0.9952 0.0979 0.0000
vn -0.9997 0.0000 -0.0243
vn -0.9939 0.1103 0.0000
vn -0.9939 -0.1103 -0.0000
# 24 vertex normals

vt 0.4468 0.0000 0.1142
vt 0.4468 0.2500 0.1128
vt 0.2470 0.2500 0.1128
vt 0.2470 0.0000 0.1142
vt 0.0472 0.2500 0.1128
vt 0.0472 -0.0000 0.1142
vt 0.4468 0.5000 0.1142
vt 0.2470 0.5000 0.1142
vt 0.0472 0.5000 0.1142
vt 0.0532 0.0000 0.3487
vt 0.2530 0.0000 0.3487
vt 0.2530 0.2500 0.3872
vt 0.0532 0.2500 0.3872
vt 0.4528 -0.0000 0.3487
vt 0.4528 0.2500 0.3872
vt 0.2530 0.5000 0.3487
vt 0.0532 0.5000 0.3487
vt 0.4528 0.5000 0.3487
vt -0.0000 0.1142 0.4528
vt 0.2500 0.1128 0.4528
vt 0.2500 0.2300 0.5000
vt -0.0000 0.2314 0.4528
vt 0.5000 0.1142 0.4528
vt 0.5000 0.2314 0.4528
vt 0.2500 0.3872 0.4528
vt -0.0000 0.3487 0.4528
vt 0.5000 0.3487 0.4528
vt 0.0000 0.1142 0.0532
vt 0.2500 0.1128 0.0532
vt 0.2500 0.2300 0.0000
vt 0.0000 0.2314 0.0532
vt 0.5000 0.1142 0.0532
vt 0.5000 0.2314 0.0532
vt 0.2500 0.3872 0.0532
vt 0.0000 0.3487 0.0532
vt 0.5000 0.3487 0.0532
# 36 texture coords

o Box006
g Box006
usemtl 03___Default
s 2
f 141/270/126 142/271/127 143/272/128 144/273/129 
f 144/273/129 143/272/128 145/274/130 146/275/131 
f 142/271/127 147/276/132 148/277/133 143/272/128 
f 143/272/128 148/277/133 149/278/134 145/274/130 
s 4
f 150/279/135 151/280/136 152/281/137 153/282/138 
f 151/280/136 154/283/139 155/284/140 152/281/137 
f 153/282/138 152/281/137 156/285/141 157/286/142 
f 152/281/137 155/284/140 158/287/143 156/285/141 
s 16
f 146/288/131 145/289/130 159/290/144 160/291/145 
f 145/289/130 149/292/134 161/293/146 159/290/144 
f 160/291/145 159/290/144 155/294/140 154/295/139 
f 159/290/144 161/293/146 158/296/143 155/294/140 
s 64
f 147/297/132 142/298/127 162/299/147 163/300/148 
f 142/298/127 141/301/126 164/302/149 162/299/147 
f 163/300/148 162/299/147 153/303/138 157/304/142 
f 162/299/147 164/302/149 150/305/135 153/303/138 
# 16 polygons

