# 3ds Max Wavefront OBJ Exporter v0.97b - (c)2007 guruware
# File Created: 21.02.2022 03:51:14

mtllib mdl_wall.mtl

#
# object Box001
#

v  -31.7303 0.0000 -2.1959
v  -31.7303 0.0000 -12.6816
v  36.4285 0.0000 -12.6816
v  36.4285 0.0000 -2.1959
v  -31.7303 10.6757 -2.8510
v  36.4285 10.6757 -2.8510
v  36.4285 10.6757 -12.0265
v  -31.7303 10.6757 -12.0265
# 8 vertices

vn -0.5742 -0.5609 0.5964
vn -0.5742 -0.5609 -0.5964
vn 0.5742 -0.5609 -0.5964
vn 0.5742 -0.5609 0.5964
vn -0.5806 0.5931 0.5578
vn 0.5806 0.5931 0.5578
vn 0.5806 0.5931 -0.5578
vn -0.5806 0.5931 -0.5578
# 8 vertex normals

vt 1.8357 0.8845 0.0000
vt 1.8357 1.1155 0.0000
vt 0.1744 1.1155 0.0000
vt 0.1744 0.8845 0.0000
vt 0.1643 0.8845 0.2621
vt 1.8256 0.8845 0.2621
vt 1.8256 1.1155 0.2621
vt 0.1643 1.1155 0.2621
vt 0.1643 0.0000 0.4422
vt 1.8256 0.0000 0.4422
vt 1.8256 0.5243 0.4422
vt 0.1643 0.5243 0.4422
vt 0.8845 0.0000 0.9128
vt 1.1155 0.0000 0.9128
vt 1.1155 0.5243 0.9128
vt 0.8845 0.5243 0.9128
vt 0.1744 0.0000 0.5578
vt 1.8357 0.0000 0.5578
vt 1.8357 0.5243 0.5578
vt 0.1744 0.5243 0.5578
vt 0.8845 0.0000 0.0822
vt 1.1155 0.0000 0.0822
vt 1.1155 0.5243 0.0822
vt 0.8845 0.5243 0.0822
# 24 texture coords

o Box001
g Box001
usemtl 02___Default
s 1
f 1/1/1 2/2/2 3/3/3 4/4/4 
f 5/5/5 6/6/6 7/7/7 8/8/8 
s 2
f 1/9/1 4/10/4 6/11/6 5/12/5 
s 4
f 4/13/4 3/14/3 7/15/7 6/16/6 
s 2
f 3/17/3 2/18/2 8/19/8 7/20/7 
s 4
f 2/21/2 1/22/1 5/23/5 8/24/8 
# 6 polygons

#
# object Box002
#

v  -38.4729 -0.0000 0.6738
v  -38.4729 -0.0000 -15.5513
v  -31.2509 -0.0000 -15.5513
v  -31.2509 -0.0000 0.6738
v  -38.4729 40.7237 -3.1930
v  -31.2509 40.7237 -3.1930
v  -31.2509 40.7237 -11.6845
v  -38.4729 40.7237 -11.6845
# 8 vertices

vn -0.5662 -0.5121 0.6459
vn -0.5662 -0.5121 -0.6459
vn 0.5662 -0.5121 -0.6459
vn 0.5662 -0.5121 0.6459
vn -0.5904 0.6324 0.5015
vn 0.5904 0.6324 0.5015
vn 0.5904 0.6324 -0.5015
vn -0.5904 0.6324 -0.5015
# 8 vertex normals

vt 2.0000 0.8212 -0.0000
vt 2.0000 1.1788 -0.0000
vt 1.8240 1.1788 -0.0000
vt 1.8240 0.8212 -0.0000
vt 0.0000 0.8212 1.0000
vt 0.1760 0.8212 1.0000
vt 0.1760 1.1788 1.0000
vt 0.0000 1.1788 1.0000
vt 0.0000 -0.0000 0.4106
vt 0.1760 -0.0000 0.4106
vt 0.1760 2.0000 0.4106
vt 0.0000 2.0000 0.4106
vt 0.8212 -0.0000 0.0880
vt 1.1788 -0.0000 0.0880
vt 1.1788 2.0000 0.0880
vt 0.8212 2.0000 0.0880
vt 1.8240 -0.0000 0.5894
vt 2.0000 -0.0000 0.5894
vt 2.0000 2.0000 0.5894
vt 1.8240 2.0000 0.5894
vt 0.8212 -0.0000 0.0000
vt 1.1788 -0.0000 0.0000
vt 1.1788 2.0000 0.0000
vt 0.8212 2.0000 0.0000
# 24 texture coords

o Box002
g Box002
usemtl 02___Default
s 1
f 9/25/9 10/26/10 11/27/11 12/28/12 
f 13/29/13 14/30/14 15/31/15 16/32/16 
s 2
f 9/33/9 12/34/12 14/35/14 13/36/13 
s 4
f 12/37/12 11/38/11 15/39/15 14/40/14 
s 2
f 11/41/11 10/42/10 16/43/16 15/44/15 
s 4
f 10/45/10 9/46/9 13/47/13 16/48/16 
# 6 polygons

#
# object Box003
#

v  36.3623 -0.0000 0.6738
v  36.3623 -0.0000 -15.5513
v  43.5843 -0.0000 -15.5513
v  43.5843 -0.0000 0.6738
v  36.3623 40.7237 -3.1930
v  43.5843 40.7237 -3.1930
v  43.5843 40.7237 -11.6845
v  36.3623 40.7237 -11.6845
# 8 vertices

vn -0.5662 -0.5121 0.6459
vn -0.5662 -0.5121 -0.6459
vn 0.5662 -0.5121 -0.6459
vn 0.5662 -0.5121 0.6459
vn -0.5904 0.6324 0.5015
vn 0.5904 0.6324 0.5015
vn 0.5904 0.6324 -0.5015
vn -0.5904 0.6324 -0.5015
# 8 vertex normals

vt 0.1760 0.8212 -0.0000
vt 0.1760 1.1788 -0.0000
vt 0.0000 1.1788 -0.0000
vt 0.0000 0.8212 -0.0000
vt 1.8240 0.8212 1.0000
vt 2.0000 0.8212 1.0000
vt 2.0000 1.1788 1.0000
vt 1.8240 1.1788 1.0000
vt 1.8240 -0.0000 0.4106
vt 2.0000 -0.0000 0.4106
vt 2.0000 2.0000 0.4106
vt 1.8240 2.0000 0.4106
vt 0.8212 -0.0000 1.0000
vt 1.1788 -0.0000 1.0000
vt 1.1788 2.0000 1.0000
vt 0.8212 2.0000 1.0000
vt 0.0000 -0.0000 0.5894
vt 0.1760 -0.0000 0.5894
vt 0.1760 2.0000 0.5894
vt 0.0000 2.0000 0.5894
vt 0.8212 -0.0000 0.9120
vt 1.1788 -0.0000 0.9120
vt 1.1788 2.0000 0.9120
vt 0.8212 2.0000 0.9120
# 24 texture coords

o Box003
g Box003
usemtl 02___Default
s 1
f 17/49/17 18/50/18 19/51/19 20/52/20 
f 21/53/21 22/54/22 23/55/23 24/56/24 
s 2
f 17/57/17 20/58/20 22/59/22 21/60/21 
s 4
f 20/61/20 19/62/19 23/63/23 22/64/22 
s 2
f 19/65/19 18/66/18 24/67/24 23/68/23 
s 4
f 18/69/18 17/70/17 21/71/21 24/72/24 
# 6 polygons

#
# object Box004
#

v  -31.7303 9.9404 -5.4195
v  -31.7303 9.9404 -9.4580
v  36.4285 9.9404 -9.4580
v  36.4285 9.9404 -5.4195
v  -31.7303 37.2603 -6.1502
v  36.4285 37.2603 -6.1502
v  36.4285 37.2603 -8.7273
v  -31.7303 37.2603 -8.7273
# 8 vertices

vn -0.5696 -0.5342 0.6246
vn -0.5696 -0.5342 -0.6246
vn 0.5696 -0.5342 -0.6246
vn 0.5696 -0.5342 0.6246
vn -0.5860 0.6158 0.5267
vn 0.5860 0.6158 0.5267
vn 0.5860 0.6158 -0.5267
vn -0.5860 0.6158 -0.5267
# 8 vertex normals

vt 1.8021 0.4724 0.0000
vt 1.8021 0.5276 0.0000
vt -0.8021 0.5276 0.0000
vt -0.8021 0.4724 0.0000
vt -0.8021 0.4724 1.0000
vt 1.8021 0.4724 1.0000
vt 1.8021 0.5276 1.0000
vt -0.8021 0.5276 1.0000
vt -0.8021 0.0000 0.4724
vt 1.8021 0.0000 0.4724
vt 1.8021 1.0000 0.4724
vt -0.8021 1.0000 0.4724
vt 0.4724 0.0000 1.8021
vt 0.5276 0.0000 1.8021
vt 0.5276 1.0000 1.8021
vt 0.4724 1.0000 1.8021
vt -0.8021 0.0000 0.5276
vt 1.8021 0.0000 0.5276
vt 1.8021 1.0000 0.5276
vt -0.8021 1.0000 0.5276
vt 0.4724 0.0000 -0.8021
vt 0.5276 0.0000 -0.8021
vt 0.5276 1.0000 -0.8021
vt 0.4724 1.0000 -0.8021
# 24 texture coords

o Box004
g Box004
usemtl 01___Default
s 1
f 25/73/25 26/74/26 27/75/27 28/76/28 
f 29/77/29 30/78/30 31/79/31 32/80/32 
s 2
f 25/81/25 28/82/28 30/83/30 29/84/29 
s 4
f 28/85/28 27/86/27 31/87/31 30/88/30 
s 2
f 27/89/27 26/90/26 32/91/32 31/92/31 
s 4
f 26/93/26 25/94/25 29/95/29 32/96/32 
# 6 polygons

